<svg data-v-423bf9ae="" xmlns="http://www.w3.org/2000/svg" viewBox="0 0 850 90" class="iconLeft"><!----><!----><!----><g data-v-423bf9ae="" id="25f29b49-bacf-48db-924a-2be4ff66af2e" fill="#341028" transform="matrix(5.830903811703725,0,0,5.830903811703725,122.61058417027851,-1.793005075512184)"><path d="M5.45 4.89L5.15 4.09L5.15 4.09Q5.09 3.97 4.93 3.88L4.93 3.88L4.93 3.88Q4.78 3.79 4.55 3.71L4.55 3.71L4.55 3.71Q4.35 3.66 4.13 3.62L4.13 3.62L4.13 3.62Q3.91 3.58 3.71 3.58L3.71 3.58L3.71 3.58Q3.06 3.58 2.58 4.10L2.58 4.10L2.58 4.09L2.58 4.09Q2.11 4.61 2.11 5.29L2.11 5.29L2.11 5.29Q2.11 6.13 2.67 6.56L2.67 6.56L2.67 6.56Q2.84 6.71 3.19 6.87L3.19 6.87L3.19 6.87Q3.53 7.03 4.05 7.21L4.05 7.21L4.05 7.21Q4.77 7.44 5.31 7.77L5.31 7.77L5.31 7.77Q5.86 8.09 6.21 8.47L6.21 8.47L6.21 8.47Q6.59 8.88 6.79 9.37L6.79 9.37L6.79 9.37Q6.99 9.86 6.99 10.42L6.99 10.42L6.99 10.42Q6.99 11.73 5.86 12.50L5.86 12.50L5.86 12.49L5.86 12.49Q5.37 12.83 4.80 13.00L4.80 13.00L4.80 13.00Q4.22 13.16 3.56 13.16L3.56 13.16L3.56 13.16Q1.55 13.16 0.46 11.75L0.46 11.75L0.46 10.20L1.24 10.20L1.36 10.98L1.36 10.98Q1.44 11.61 2.00 11.99L2.00 11.99L2.00 11.99Q2.54 12.35 3.20 12.35L3.20 12.35L3.20 12.35Q4.08 12.35 4.66 11.83L4.66 11.83L4.66 11.83Q5.27 11.29 5.27 10.44L5.27 10.44L5.27 10.44Q5.27 9.45 4.09 8.89L4.09 8.89L4.09 8.89L4.09 8.89Q3.81 8.76 3.52 8.63L3.52 8.63L3.52 8.63Q3.23 8.50 2.94 8.37L2.94 8.37L2.94 8.37Q2.65 8.24 2.36 8.11L2.36 8.11L2.36 8.11Q2.06 7.98 1.78 7.85L1.78 7.85L1.78 7.85Q0.45 7.03 0.45 5.52L0.45 5.52L0.45 5.52Q0.45 4.26 1.43 3.53L1.43 3.53L1.43 3.53Q2.29 2.88 3.59 2.88L3.59 2.88L3.59 2.88Q4.02 2.88 4.67 2.98L4.67 2.98L4.67 2.98Q5.31 3.09 6.17 3.29L6.17 3.29L6.17 4.89L5.45 4.89ZM10.19 12.52L10.19 12.52L10.19 12.52Q10.70 12.52 11.27 11.98L11.27 11.98L11.27 11.98Q11.53 11.74 11.72 11.48L11.72 11.48L11.72 11.48Q11.92 11.22 12.01 10.94L12.01 10.94L12.01 9.41L12.01 9.41Q11.83 9.49 11.56 9.58L11.56 9.58L11.56 9.58Q11.30 9.67 10.95 9.76L10.95 9.76L10.96 9.76L10.96 9.76Q10.58 9.88 10.31 9.99L10.31 9.99L10.31 9.99Q10.05 10.10 9.89 10.23L9.89 10.23L9.89 10.22L9.89 10.22Q9.45 10.58 9.45 11.31L9.45 11.31L9.45 11.31Q9.45 11.80 9.62 12.13L9.62 12.13L9.62 12.13Q9.81 12.52 10.19 12.52ZM8.44 8.16L8.44 6.48L8.44 6.48Q9.26 6.29 9.80 6.19L9.80 6.19L9.80 6.19Q10.34 6.09 10.61 6.09L10.61 6.09L10.61 6.09Q12.16 6.09 12.82 6.57L12.82 6.57L12.82 6.57Q13.59 7.16 13.59 8.68L13.59 8.68L13.59 11.56L13.59 11.56Q13.59 12.35 13.61 12.35L13.61 12.35L14.40 12.35L14.40 13.01L12.30 13.01L12.30 13.01Q12.08 12.67 12.02 12.15L12.02 12.15L12.02 12.15Q11.87 12.34 11.66 12.51L11.66 12.51L11.66 12.51Q11.46 12.68 11.23 12.81L11.23 12.81L11.23 12.81Q10.58 13.17 9.84 13.17L9.84 13.17L9.84 13.17Q8.97 13.17 8.43 12.73L8.43 12.73L8.43 12.73Q7.86 12.24 7.86 11.36L7.86 11.36L7.86 11.36Q7.86 10.23 8.74 9.76L8.74 9.76L8.74 9.76Q9.15 9.54 10.49 9.27L10.49 9.27L10.49 9.27Q11.57 9.06 11.96 8.69L11.96 8.69L11.96 8.69Q11.98 8.62 11.99 8.53L11.99 8.53L11.99 8.53Q12.00 8.45 12.00 8.35L12.00 8.35L12.00 8.35Q12.00 6.75 10.33 6.75L10.33 6.75L10.33 6.75Q9.24 6.75 9.09 8.16L9.09 8.16L8.44 8.16ZM15.25 6.27L17.51 6.27L17.51 6.55L17.51 6.55Q18.09 6.15 18.93 6.15L18.93 6.15L18.93 6.15Q20.11 6.15 20.95 6.88L20.95 6.88L19.97 7.99L19.97 7.99Q19.52 6.83 18.77 6.83L18.77 6.83L18.77 6.83Q18.02 6.83 17.51 7.49L17.51 7.49L17.51 7.49Q17.51 8.74 17.52 9.92L17.52 9.92L17.52 9.92Q17.52 11.09 17.53 12.35L17.53 12.35L18.22 12.35L18.22 13.01L15.25 13.01L15.25 12.35L15.94 12.35L15.94 6.93L15.25 6.93L15.25 6.27ZM23.89 12.52L23.89 12.52L23.89 12.52Q24.40 12.52 24.98 11.98L24.98 11.98L24.98 11.98Q25.24 11.74 25.43 11.48L25.43 11.48L25.43 11.48Q25.62 11.22 25.72 10.94L25.72 10.94L25.72 9.41L25.72 9.41Q25.53 9.49 25.27 9.58L25.27 9.58L25.27 9.58Q25.01 9.67 24.66 9.76L24.66 9.76L24.66 9.76L24.66 9.76Q24.28 9.88 24.02 9.99L24.02 9.99L24.02 9.99Q23.75 10.10 23.60 10.23L23.60 10.23L23.60 10.22L23.60 10.22Q23.16 10.58 23.16 11.31L23.16 11.31L23.16 11.31Q23.16 11.80 23.32 12.13L23.32 12.13L23.32 12.13Q23.52 12.52 23.89 12.52ZM22.15 8.16L22.15 6.48L22.15 6.48Q22.96 6.29 23.50 6.19L23.50 6.19L23.50 6.19Q24.04 6.09 24.32 6.09L24.32 6.09L24.32 6.09Q25.87 6.09 26.52 6.57L26.52 6.57L26.52 6.57Q27.30 7.16 27.30 8.68L27.30 8.68L27.30 11.56L27.30 11.56Q27.30 12.35 27.32 12.35L27.32 12.35L28.11 12.35L28.11 13.01L26.00 13.01L26.00 13.01Q25.79 12.67 25.73 12.15L25.73 12.15L25.73 12.15Q25.57 12.34 25.37 12.51L25.37 12.51L25.37 12.51Q25.16 12.68 24.94 12.81L24.94 12.81L24.94 12.81Q24.28 13.17 23.55 13.17L23.55 13.17L23.55 13.17Q22.67 13.17 22.13 12.73L22.13 12.73L22.13 12.73Q21.57 12.24 21.57 11.36L21.57 11.36L21.57 11.36Q21.57 10.23 22.44 9.76L22.44 9.76L22.44 9.76Q22.86 9.54 24.20 9.27L24.20 9.27L24.20 9.27Q25.28 9.06 25.67 8.69L25.67 8.69L25.67 8.69Q25.68 8.62 25.70 8.53L25.70 8.53L25.70 8.53Q25.71 8.45 25.71 8.35L25.71 8.35L25.71 8.35Q25.71 6.75 24.04 6.75L24.04 6.75L24.04 6.75Q22.95 6.75 22.80 8.16L22.80 8.16L22.15 8.16ZM29.02 13.01L29.02 12.35L29.71 12.35L29.71 12.35Q29.71 10.15 29.72 8.02L29.72 8.02L29.72 8.02Q29.72 5.89 29.72 3.70L29.72 3.70L29.03 3.70L29.03 3.04L31.32 3.04L31.31 6.64L31.31 6.64Q31.68 6.36 32.06 6.23L32.06 6.23L32.06 6.23Q32.45 6.10 32.90 6.10L32.90 6.10L32.90 6.10Q34.23 6.10 34.95 6.92L34.95 6.92L34.95 6.92Q35.62 7.70 35.62 9.02L35.62 9.02L35.62 12.35L36.31 12.35L36.31 13.01L33.35 13.01L33.35 12.35L34.03 12.35L34.03 9.06L34.03 9.06Q34.03 6.78 32.68 6.78L32.68 6.78L32.68 6.78Q32.33 6.78 31.98 6.98L31.98 6.98L31.98 6.98Q31.64 7.17 31.31 7.54L31.31 7.54L31.31 12.35L31.99 12.35L31.99 13.01L29.02 13.01ZM43.97 3.74L43.97 7.50L45.08 7.50L45.08 7.50Q45.69 7.50 46.07 6.86L46.07 6.86L46.07 6.86Q46.42 6.30 46.42 5.58L46.42 5.58L46.42 5.58Q46.42 4.35 45.60 3.84L45.60 3.84L45.60 3.85L45.60 3.85Q45.39 3.74 44.81 3.74L44.81 3.74L43.97 3.74ZM43.97 12.30L45.12 12.30L45.12 12.30Q45.85 12.30 46.14 12.14L46.14 12.14L46.14 12.14Q46.54 11.90 46.81 11.31L46.81 11.31L46.81 11.31Q46.95 11.03 47.01 10.76L47.01 10.76L47.01 10.76Q47.07 10.49 47.07 10.21L47.07 10.21L47.07 10.21Q47.07 9.63 46.79 9.06L46.79 9.06L46.79 9.06Q46.49 8.46 46.01 8.25L46.01 8.25L46.01 8.25Q45.88 8.20 45.68 8.18L45.68 8.18L45.68 8.18Q45.47 8.15 45.19 8.15L45.19 8.15L43.97 8.15L43.97 12.30ZM41.56 3.04L44.65 3.04L44.65 3.04Q45.26 3.04 45.71 3.08L45.71 3.08L45.71 3.08Q46.16 3.12 46.46 3.21L46.46 3.21L46.46 3.21Q46.94 3.36 47.29 3.66L47.29 3.66L47.29 3.66Q47.64 3.96 47.86 4.39L47.86 4.39L47.86 4.39Q48.00 4.68 48.07 4.98L48.07 4.98L48.07 4.98Q48.14 5.28 48.14 5.60L48.14 5.60L48.14 5.60Q48.14 6.28 47.87 6.80L47.87 6.80L47.87 6.80Q47.59 7.31 47.10 7.66L47.10 7.66L47.10 7.66Q47.80 7.94 48.25 8.55L48.25 8.55L48.25 8.55Q48.52 8.91 48.65 9.33L48.65 9.33L48.65 9.33Q48.78 9.74 48.78 10.21L48.78 10.21L48.78 10.21Q48.78 11.53 47.89 12.30L47.89 12.30L47.89 12.30Q47.04 13.01 45.72 13.01L45.72 13.01L41.56 13.01L41.56 12.30L42.25 12.30L42.25 3.74L41.56 3.74L41.56 3.04ZM51.28 8.84L54.21 8.84L54.21 8.84Q54.15 7.82 53.78 7.30L53.78 7.30L53.78 7.30Q53.41 6.79 52.73 6.79L52.73 6.79L52.73 6.79Q51.95 6.79 51.58 7.49L51.58 7.49L51.58 7.49Q51.44 7.75 51.37 8.08L51.37 8.08L51.37 8.08Q51.29 8.42 51.28 8.84L51.28 8.84ZM55.82 9.50L51.26 9.50L51.26 9.50Q51.25 9.65 51.25 9.73L51.25 9.73L51.25 9.73Q51.26 9.82 51.26 9.86L51.26 9.86L51.26 9.86Q51.26 12.43 53.11 12.43L53.11 12.43L53.11 12.43Q53.76 12.43 54.33 12.09L54.33 12.09L54.33 12.09Q54.59 11.92 54.82 11.65L54.82 11.65L54.82 11.65Q55.04 11.38 55.20 11.03L55.20 11.03L55.79 11.39L55.79 11.39Q55.60 11.85 55.29 12.20L55.29 12.20L55.29 12.20Q54.97 12.54 54.55 12.78L54.55 12.78L54.55 12.78Q54.18 12.97 53.75 13.07L53.75 13.07L53.75 13.07Q53.31 13.17 52.85 13.17L52.85 13.17L52.85 13.17Q52.05 13.17 51.44 12.89L51.44 12.89L51.44 12.89Q50.83 12.61 50.42 12.07L50.42 12.07L50.42 12.07Q50.06 11.59 49.87 10.93L49.87 10.93L49.87 10.93Q49.68 10.27 49.68 9.47L49.68 9.47L49.68 9.47Q49.68 7.98 50.43 7.07L50.43 7.07L50.43 7.07Q51.24 6.10 52.73 6.10L52.73 6.10L52.73 6.10Q53.46 6.10 54.02 6.33L54.02 6.33L54.02 6.33Q54.58 6.57 54.99 7.04L54.99 7.04L54.99 7.04Q55.73 7.91 55.82 9.50L55.82 9.50ZM58.32 8.84L61.25 8.84L61.25 8.84Q61.20 7.82 60.82 7.30L60.82 7.30L60.82 7.30Q60.45 6.79 59.77 6.79L59.77 6.79L59.77 6.79Q58.99 6.79 58.63 7.49L58.63 7.49L58.63 7.49Q58.48 7.75 58.41 8.08L58.41 8.08L58.41 8.08Q58.33 8.42 58.32 8.84L58.32 8.84ZM62.86 9.50L58.30 9.50L58.30 9.50Q58.29 9.65 58.29 9.73L58.29 9.73L58.29 9.73Q58.30 9.82 58.30 9.86L58.30 9.86L58.30 9.86Q58.30 12.43 60.15 12.43L60.15 12.43L60.15 12.43Q60.80 12.43 61.37 12.09L61.37 12.09L61.37 12.09Q61.63 11.92 61.86 11.65L61.86 11.65L61.86 11.65Q62.08 11.38 62.24 11.03L62.24 11.03L62.83 11.39L62.83 11.39Q62.64 11.85 62.33 12.20L62.33 12.20L62.33 12.20Q62.02 12.54 61.59 12.78L61.59 12.78L61.59 12.78Q61.22 12.97 60.79 13.07L60.79 13.07L60.79 13.07Q60.35 13.17 59.89 13.17L59.89 13.17L59.89 13.17Q59.09 13.17 58.48 12.89L58.48 12.89L58.48 12.89Q57.87 12.61 57.46 12.07L57.46 12.07L57.46 12.07Q57.10 11.59 56.91 10.93L56.91 10.93L56.91 10.93Q56.72 10.27 56.72 9.47L56.72 9.47L56.72 9.47Q56.72 7.98 57.47 7.07L57.47 7.07L57.47 7.07Q58.28 6.10 59.77 6.10L59.77 6.10L59.77 6.10Q60.50 6.10 61.06 6.33L61.06 6.33L61.06 6.33Q61.62 6.57 62.03 7.04L62.03 7.04L62.03 7.04Q62.77 7.91 62.86 9.50L62.86 9.50ZM64.06 5.74L63.79 3.78L63.79 3.78Q63.85 3.03 64.48 3.04L64.48 3.04L64.48 3.04Q65.10 3.04 65.16 3.79L65.16 3.79L64.89 5.75L64.06 5.74ZM67.07 11.08L67.07 11.44L67.07 11.44Q67.21 11.70 67.36 11.90L67.36 11.90L67.36 11.90Q67.51 12.11 67.66 12.22L67.66 12.22L67.66 12.22Q68.03 12.52 68.58 12.52L68.58 12.52L68.58 12.52Q69.13 12.52 69.51 12.20L69.51 12.20L69.51 12.20Q69.92 11.85 69.92 11.35L69.92 11.35L69.92 11.35Q69.92 11.07 69.69 10.83L69.69 10.83L69.69 10.83Q69.46 10.58 69.08 10.39L69.08 10.39L69.08 10.39Q68.87 10.29 68.66 10.21L68.66 10.21L68.66 10.21Q68.45 10.12 68.24 10.02L68.24 10.02L68.24 10.02Q68.02 9.93 67.80 9.84L67.80 9.84L67.80 9.84Q67.59 9.75 67.38 9.65L67.38 9.65L67.38 9.65Q66.39 9.05 66.39 8.00L66.39 8.00L66.39 8.00Q66.39 7.55 66.62 7.19L66.62 7.19L66.62 7.19Q66.84 6.82 67.25 6.54L67.25 6.54L67.25 6.54Q67.61 6.32 68.03 6.20L68.03 6.20L68.03 6.20Q68.45 6.08 68.91 6.08L68.91 6.08L68.91 6.08Q69.04 6.08 69.25 6.13L69.25 6.13L69.25 6.13Q69.46 6.17 69.70 6.25L69.70 6.25L69.70 6.25Q69.92 6.32 70.11 6.36L70.11 6.36L70.11 6.36Q70.29 6.40 70.40 6.40L70.40 6.40L70.40 6.40Q70.57 6.40 70.66 6.27L70.66 6.27L71.26 6.27L71.26 8.20L70.59 8.20L70.59 7.83L70.59 7.83Q70.04 6.76 69.15 6.76L69.15 6.76L69.15 6.76Q68.63 6.76 68.30 7.08L68.30 7.08L68.30 7.08Q67.96 7.38 67.96 7.89L67.96 7.89L67.96 7.89Q67.96 8.33 68.37 8.55L68.37 8.55L68.37 8.54L68.37 8.54Q68.48 8.60 68.87 8.75L68.87 8.75L68.87 8.75Q69.25 8.91 69.92 9.15L69.92 9.15L69.92 9.15Q71.44 9.73 71.44 11.25L71.44 11.25L71.44 11.25Q71.44 11.76 71.17 12.16L71.17 12.16L71.17 12.16Q70.91 12.55 70.46 12.80L70.46 12.80L70.46 12.80Q70.10 12.96 69.63 13.06L69.63 13.06L69.63 13.06Q69.15 13.17 68.63 13.17L68.63 13.17L68.63 13.17Q68.50 13.17 68.32 13.13L68.32 13.13L68.32 13.13Q68.14 13.10 67.90 13.02L67.90 13.02L67.90 13.02Q67.68 12.94 67.52 12.91L67.52 12.91L67.52 12.91Q67.36 12.88 67.26 12.88L67.26 12.88L67.26 12.88Q67.09 12.88 67.00 13.01L67.00 13.01L66.40 13.01L66.40 11.08L67.07 11.08ZM82.30 3.74L79.31 3.74L79.31 7.66L81.37 7.66L81.37 6.97L82.17 6.97L82.17 9.04L81.37 9.04L81.37 8.37L79.31 8.37L79.31 12.30L79.99 12.30L79.99 13.01L76.91 13.01L76.91 12.30L77.59 12.30L77.59 3.74L76.90 3.74L76.90 3.04L83.56 3.04L83.82 4.85L83.08 4.85L83.08 4.85Q82.90 3.74 82.30 3.74L82.30 3.74ZM84.05 13.01L84.05 12.35L84.74 12.35L84.74 3.70L84.05 3.70L84.05 3.04L86.33 3.04L86.33 12.35L87.02 12.35L87.02 13.01L84.05 13.01ZM89.37 9.67L89.37 9.67L89.37 9.67Q89.37 10.78 89.69 11.51L89.69 11.51L89.69 11.51Q90.10 12.50 90.97 12.50L90.97 12.50L90.97 12.50Q91.40 12.50 91.73 12.24L91.73 12.24L91.73 12.24Q92.05 11.99 92.26 11.52L92.26 11.52L92.26 11.52Q92.41 11.15 92.49 10.68L92.49 10.68L92.49 10.68Q92.57 10.22 92.57 9.69L92.57 9.69L92.57 9.69Q92.57 8.58 92.26 7.81L92.26 7.81L92.26 7.81Q91.83 6.77 90.98 6.77L90.98 6.77L90.98 6.77Q90.54 6.77 90.21 7.04L90.21 7.04L90.21 7.04Q89.89 7.31 89.68 7.78L89.68 7.78L89.68 7.78Q89.54 8.15 89.46 8.63L89.46 8.63L89.46 8.63Q89.37 9.12 89.37 9.67ZM94.16 9.64L94.16 9.64L94.16 9.64Q94.16 11.51 93.35 12.34L93.35 12.34L93.35 12.34Q92.56 13.15 90.71 13.15L90.71 13.15L90.71 13.15Q87.78 13.15 87.78 9.64L87.78 9.64L87.78 9.64Q87.78 6.11 91.14 6.11L91.14 6.11L91.14 6.11Q94.16 6.11 94.16 9.64ZM95.54 6.93L94.81 6.93L94.81 6.27L97.64 6.27L97.64 6.93L97.16 6.93L97.16 6.93Q97.36 7.44 97.54 7.92L97.54 7.92L97.54 7.92Q97.73 8.39 97.91 8.86L97.91 8.86L97.91 8.86Q98.09 9.32 98.27 9.80L98.27 9.80L98.27 9.80Q98.46 10.28 98.66 10.81L98.66 10.81L98.66 10.81Q98.94 10.08 99.21 9.38L99.21 9.38L99.21 9.38Q99.48 8.67 99.76 7.94L99.76 7.94L99.76 7.94Q99.66 7.66 99.57 7.44L99.57 7.44L99.57 7.44Q99.48 7.21 99.37 6.93L99.37 6.93L98.64 6.93L98.64 6.27L101.61 6.27L101.61 6.93L101.00 6.93L101.00 6.93Q101.20 7.44 101.38 7.92L101.38 7.92L101.38 7.92Q101.57 8.39 101.75 8.86L101.75 8.86L101.75 8.86Q101.93 9.33 102.12 9.81L102.12 9.81L102.12 9.81Q102.30 10.29 102.50 10.81L102.50 10.81L102.50 10.81Q102.69 10.31 102.87 9.83L102.87 9.83L102.87 9.83Q103.06 9.35 103.24 8.88L103.24 8.88L103.24 8.88Q103.42 8.41 103.61 7.93L103.61 7.93L103.61 7.93Q103.80 7.44 104.00 6.93L104.00 6.93L103.54 6.93L103.54 6.27L105.44 6.27L105.44 6.93L104.71 6.93L104.71 6.93Q104.13 8.44 103.54 9.97L103.54 9.97L103.54 9.97Q102.94 11.50 102.36 13.01L102.36 13.01L101.73 13.01L100.13 8.86L100.13 8.86Q99.72 9.90 99.32 10.94L99.32 10.94L99.32 10.94Q98.92 11.98 98.53 13.01L98.53 13.01L97.90 13.01L95.54 6.93ZM107.76 8.84L110.69 8.84L110.69 8.84Q110.64 7.82 110.27 7.30L110.27 7.30L110.27 7.30Q109.89 6.79 109.21 6.79L109.21 6.79L109.21 6.79Q108.44 6.79 108.07 7.49L108.07 7.49L108.07 7.49Q107.93 7.75 107.85 8.08L107.85 8.08L107.85 8.08Q107.78 8.42 107.76 8.84L107.76 8.84ZM112.31 9.50L107.74 9.50L107.74 9.50Q107.73 9.65 107.74 9.73L107.74 9.73L107.74 9.73Q107.74 9.82 107.74 9.86L107.74 9.86L107.74 9.86Q107.74 12.43 109.59 12.43L109.59 12.43L109.59 12.43Q110.24 12.43 110.81 12.09L110.81 12.09L110.81 12.09Q111.08 11.92 111.30 11.65L111.30 11.65L111.30 11.65Q111.53 11.38 111.69 11.03L111.69 11.03L112.27 11.39L112.27 11.39Q112.09 11.85 111.77 12.20L111.77 12.20L111.77 12.20Q111.46 12.54 111.04 12.78L111.04 12.78L111.04 12.78Q110.67 12.97 110.23 13.07L110.23 13.07L110.23 13.07Q109.80 13.17 109.33 13.17L109.33 13.17L109.33 13.17Q108.53 13.17 107.92 12.89L107.92 12.89L107.92 12.89Q107.31 12.61 106.90 12.07L106.90 12.07L106.90 12.07Q106.54 11.59 106.36 10.93L106.36 10.93L106.36 10.93Q106.17 10.27 106.17 9.47L106.17 9.47L106.17 9.47Q106.17 7.98 106.91 7.07L106.91 7.07L106.91 7.07Q107.72 6.10 109.22 6.10L109.22 6.10L109.22 6.10Q109.95 6.10 110.51 6.33L110.51 6.33L110.51 6.33Q111.06 6.57 111.47 7.04L111.47 7.04L111.47 7.04Q112.22 7.91 112.31 9.50L112.31 9.50ZM113.18 6.27L115.44 6.27L115.44 6.55L115.44 6.55Q116.03 6.15 116.86 6.15L116.86 6.15L116.86 6.15Q118.04 6.15 118.88 6.88L118.88 6.88L117.91 7.99L117.91 7.99Q117.46 6.83 116.70 6.83L116.70 6.83L116.70 6.83Q115.95 6.83 115.44 7.49L115.44 7.49L115.44 7.49Q115.45 8.74 115.45 9.92L115.45 9.92L115.45 9.92Q115.45 11.09 115.46 12.35L115.46 12.35L116.15 12.35L116.15 13.01L113.18 13.01L113.18 12.35L113.87 12.35L113.87 6.93L113.18 6.93L113.18 6.27ZM120.33 11.08L120.33 11.44L120.33 11.44Q120.47 11.70 120.62 11.90L120.62 11.90L120.62 11.90Q120.77 12.11 120.91 12.22L120.91 12.22L120.91 12.22Q121.29 12.52 121.84 12.52L121.84 12.52L121.84 12.52Q122.39 12.52 122.77 12.20L122.77 12.20L122.77 12.20Q123.18 11.85 123.18 11.35L123.18 11.35L123.18 11.35Q123.18 11.07 122.95 10.83L122.95 10.83L122.95 10.83Q122.72 10.58 122.34 10.39L122.34 10.39L122.34 10.39Q122.13 10.29 121.92 10.21L121.92 10.21L121.92 10.21Q121.71 10.12 121.50 10.02L121.50 10.02L121.50 10.02Q121.28 9.93 121.06 9.84L121.06 9.84L121.06 9.84Q120.85 9.75 120.63 9.65L120.63 9.65L120.63 9.65Q119.65 9.05 119.65 8.00L119.65 8.00L119.65 8.00Q119.65 7.55 119.88 7.19L119.88 7.19L119.88 7.19Q120.10 6.82 120.51 6.54L120.51 6.54L120.51 6.54Q120.87 6.32 121.29 6.20L121.29 6.20L121.29 6.20Q121.71 6.08 122.17 6.08L122.17 6.08L122.17 6.08Q122.30 6.08 122.51 6.13L122.51 6.13L122.51 6.13Q122.72 6.17 122.96 6.25L122.96 6.25L122.96 6.25Q123.18 6.32 123.36 6.36L123.36 6.36L123.36 6.36Q123.55 6.40 123.66 6.40L123.66 6.40L123.66 6.40Q123.83 6.40 123.92 6.27L123.92 6.27L124.52 6.27L124.52 8.20L123.85 8.20L123.85 7.83L123.85 7.83Q123.30 6.76 122.41 6.76L122.41 6.76L122.41 6.76Q121.89 6.76 121.56 7.08L121.56 7.08L121.56 7.08Q121.22 7.38 121.22 7.89L121.22 7.89L121.22 7.89Q121.22 8.33 121.63 8.55L121.63 8.55L121.63 8.54L121.63 8.54Q121.74 8.60 122.12 8.75L122.12 8.75L122.12 8.75Q122.51 8.91 123.18 9.15L123.18 9.15L123.18 9.15Q124.69 9.73 124.69 11.25L124.69 11.25L124.69 11.25Q124.69 11.76 124.43 12.16L124.43 12.16L124.43 12.16Q124.17 12.55 123.72 12.80L123.72 12.80L123.72 12.80Q123.36 12.96 122.89 13.06L122.89 13.06L122.89 13.06Q122.41 13.17 121.89 13.17L121.89 13.17L121.89 13.17Q121.76 13.17 121.58 13.13L121.58 13.13L121.58 13.13Q121.40 13.10 121.16 13.02L121.16 13.02L121.16 13.02Q120.94 12.94 120.78 12.91L120.78 12.91L120.78 12.91Q120.62 12.88 120.52 12.88L120.52 12.88L120.52 12.88Q120.35 12.88 120.26 13.01L120.26 13.01L119.66 13.01L119.66 11.08L120.33 11.08Z"></path></g><defs data-v-423bf9ae=""><linearGradient data-v-423bf9ae="" gradientTransform="rotate(25)" id="a8a98b58-def2-4e57-80a9-686bb6bc24f2" x1="0%" y1="0%" x2="100%" y2="0%"><stop data-v-423bf9ae="" offset="0%" style="stop-color: rgb(180, 55, 61); stop-opacity: 1;"></stop><stop data-v-423bf9ae="" offset="100%" style="stop-color: rgb(178, 58, 203); stop-opacity: 1;"></stop></linearGradient></defs><g data-v-423bf9ae="" id="657194d6-fd3f-4c76-993b-e9bbcc3ecadf" transform="matrix(1.190001849088363,0,0,1.190001849088363,-6.852180503019504,-19.13614488924179)" stroke="none" fill="url(#a8a98b58-def2-4e57-80a9-686bb6bc24f2)"><path d="M93.508 30.614c-2.075-2.125-6.327-2.919-9.858-1.079a6.112 6.112 0 0 0-1.168-1.152c1.813-3.572.82-8.028-1.498-10.293-2.045-1.997-4.814-2.114-7.227-.305a1.502 1.502 0 0 0 1.801 2.401c1.247-.938 2.337-.919 3.329.051 1.512 1.477 2.087 4.617.82 6.936a8.48 8.48 0 0 0-1.56-.142c-2.401 0-4.794.897-6.223 1.434l-.3.112c-1.289.478-2.521.98-3.703 1.506-3.106-.812-6.442-1.402-9.431-1.402-3.808 0-6.619.947-8.356 2.815-1.467 1.578-2.112 3.736-1.917 6.417.197 2.696 1.322 4.637 3.253 5.719a22.156 22.156 0 0 0-.955 1.914c-3.468 8.013-.662 14.854-.541 15.143l.232.552.549.24c.125.054 3.105 1.334 7.429 1.334a21.7 21.7 0 0 0 10.141-2.485c.018.036.03.075.049.111.741 1.441 2.356 3.214 5.839 3.468.315.022.62.034.915.034 3.056 0 5.408-1.235 6.802-3.571 2.321-3.891 1.617-10.292.183-15.879a63.703 63.703 0 0 0 2.042-4.782c1.226-3.22 1.295-5.65.826-7.472 2.312-1.245 5.109-.828 6.382.474.814.833.759 1.881-.166 3.112a1.502 1.502 0 0 0 1.199 2.401c.456 0 .906-.207 1.201-.6 2.164-2.888 1.373-5.515-.089-7.012zM79.354 58.833c-.953 1.599-2.525 2.259-4.922 2.082-2.271-.165-3.022-1.134-3.39-1.848-.051-.099-.079-.217-.123-.322-.395-.951-.502-2.151-.388-3.516.078-.943.25-1.954.51-3.018.417-1.703 1.037-3.518 1.752-5.319a69.63 69.63 0 0 1 1.715-3.941 86.18 86.18 0 0 1 2.386-4.686l.081.081c1.127 2.778 2.306 6.56 2.956 10.238.715 4.046.789 7.959-.577 10.249zM51.21 37.694c-.134-1.841.232-3.2 1.121-4.156 1.147-1.233 3.22-1.858 6.16-1.858 1.633 0 3.399.2 5.176.522 3.716.675 7.47 1.891 10.128 2.965l.056.056a89.51 89.51 0 0 1-4.683 2.389 67.483 67.483 0 0 1-3.938 1.719c-1.776.707-3.597 1.321-5.331 1.739-1.172.282-2.3.469-3.349.529-.237.014-.479.031-.707.031-1.146 0-2.056-.167-2.757-.521-1.163-.588-1.75-1.693-1.876-3.415zm20.211 2.17l.825.825a72.816 72.816 0 0 0-1.768 3.889l-2.947-2.947a76.192 76.192 0 0 0 3.89-1.767zm-9.08 3.647l6.267 6.268c-.467 1.592-.821 3.172-.989 4.667l-9.933-9.932c1.483-.172 3.059-.529 4.655-1.003zm-2.186 16.2l-8.198-8.198a17.81 17.81 0 0 1 1.19-4.467l11.587 11.587a18.496 18.496 0 0 1-4.579 1.078zm21.197-21.07c-.186.487-.374.961-.564 1.426-.787-2.304-1.593-4.218-2.178-5.388a1.501 1.501 0 0 0-.438-.727 1.492 1.492 0 0 0-.73-.437c-1.188-.601-2.924-1.333-4.974-2.049.068-.025.133-.053.201-.078l.31-.116c1.239-.465 3.312-1.242 5.169-1.242 1.228 0 2.156.331 2.838 1.013 1.565 1.566 1.689 4.122.366 7.598zM44.735 66.188a1.5 1.5 0 0 1-.608-2.872c1.37-.607 2.185-1.014 2.202-1.022a1.5 1.5 0 0 1 1.343 2.684s-.865.433-2.33 1.081a1.502 1.502 0 0 1-.607.129zM15.426 90.381a1.5 1.5 0 0 1-.476-2.922 34.087 34.087 0 0 0 4.474-1.841 1.5 1.5 0 0 1 1.348 2.68 37.14 37.14 0 0 1-4.87 2.007 1.552 1.552 0 0 1-.476.076zm8.918-4.649a1.5 1.5 0 0 1-.974-2.641c.206-.176.401-.353.585-.531a52.833 52.833 0 0 0 2.794-2.93 1.498 1.498 0 0 1 2.116-.136c.622.547.684 1.494.136 2.116a54.965 54.965 0 0 1-2.955 3.101c-.229.223-.474.444-.73.663-.283.24-.628.358-.972.358zm6.636-7.595a1.5 1.5 0 0 1-1.239-2.344c.953-1.402 1.744-2.803 2.35-4.163a1.497 1.497 0 0 1 1.979-.761 1.498 1.498 0 0 1 .761 1.979c-.678 1.523-1.556 3.082-2.609 4.632-.29.427-.762.657-1.242.657zm-5.601-6.365a1.5 1.5 0 0 1-.124-2.995 38.79 38.79 0 0 0 4.808-.737 1.5 1.5 0 1 1 .627 2.933 41.9 41.9 0 0 1-5.183.794 1.37 1.37 0 0 1-.128.005zm-5.043-.065c-.065 0-.132-.004-.198-.013-2.06-.272-3.858-.86-5.347-1.749a1.5 1.5 0 0 1 1.537-2.577c1.136.678 2.55 1.133 4.202 1.351a1.5 1.5 0 0 1-.194 2.988zm14.931-1.977a1.503 1.503 0 0 1-1.494-1.363 1.49 1.49 0 0 1-.315-1.185c.12-.744.181-1.484.181-2.2 0-.782-.073-1.558-.217-2.304a1.5 1.5 0 1 1 2.945-.569c.181.934.271 1.899.271 2.872 0 .413-.017.832-.049 1.253a78.95 78.95 0 0 0 2.938-1.04 1.501 1.501 0 0 1 1.055 2.809 80.545 80.545 0 0 1-4.878 1.662 1.475 1.475 0 0 1-.437.065zM12.181 66.5a1.502 1.502 0 0 1-1.344-.831c-.697-1.4-1.146-3.044-1.329-4.884-.02-.186-.035-.373-.047-.558a1.5 1.5 0 0 1 1.4-1.594 1.49 1.49 0 0 1 1.594 1.4c.01.147.021.296.037.448.148 1.48.495 2.774 1.03 3.849a1.502 1.502 0 0 1-1.341 2.17zm20.828-7.26c-.489 0-.97-.239-1.258-.681a13.195 13.195 0 0 0-3.093-3.289 1.5 1.5 0 1 1 1.815-2.389 16.181 16.181 0 0 1 3.792 4.039 1.5 1.5 0 0 1-1.256 2.32zm-21.246-2.542a1.5 1.5 0 0 1-1.355-2.142c.869-1.837 2.327-3.289 4.217-4.2a1.5 1.5 0 0 1 1.303 2.702c-1.282.618-2.228 1.554-2.809 2.781a1.497 1.497 0 0 1-1.356.859zm13.373-3.519c-.169 0-.341-.028-.509-.089-1.474-.531-3.018-.827-4.467-.855a1.5 1.5 0 0 1-1.47-1.53c.017-.828.696-1.437 1.53-1.47 1.771.035 3.646.393 5.424 1.033a1.5 1.5 0 0 1-.508 2.911zM7.998 92.136a1.5 1.5 0 0 1-.21-2.985c.783-.111 1.583-.25 2.377-.412a1.5 1.5 0 0 1 .6 2.94c-.852.173-1.711.321-2.553.442a1.55 1.55 0 0 1-.214.015z"></path></g><!----></svg>