<svg data-v-423bf9ae="" xmlns="http://www.w3.org/2000/svg" viewBox="0 0 838 90" class="iconLeft"><!----><!----><!----><g data-v-423bf9ae="" id="d57a3925-c0e9-4a9c-b12b-2af1462c4dc1" fill="black" transform="matrix(4.467609727222167,0,0,4.467609727222167,122.55391941900899,4.009680854282003)"><path d="M3.81 8.48L3.81 8.48L3.81 8.48Q4.23 8.86 4.74 9.23L4.74 9.23L4.74 9.23Q5.25 9.60 5.76 9.98L5.76 9.98L5.76 9.98Q6.27 10.36 6.69 10.75L6.69 10.75L6.69 10.75Q7.64 11.63 7.64 12.70L7.64 12.70L7.64 12.70Q7.64 14.01 6.64 14.90L6.64 14.90L6.64 14.90Q5.64 15.78 4.00 15.78L4.00 15.78L4.00 15.78Q2.37 15.78 1.48 15.04L1.48 15.04L1.48 15.04Q0.60 14.29 0.60 13.27L0.60 13.27L0.60 13.27Q0.60 12.52 1.05 12.05L1.05 12.05L1.05 12.05Q1.50 11.58 2.21 11.58L2.21 11.58L2.21 11.58Q2.41 11.58 2.59 11.63L2.59 11.63L2.59 11.63Q2.16 12.29 2.16 13.04L2.16 13.04L2.16 13.04Q2.16 13.79 2.67 14.32L2.67 14.32L2.67 14.32Q3.19 14.85 4.23 14.85L4.23 14.85L4.23 14.85Q4.97 14.85 5.55 14.40L5.55 14.40L5.55 14.40Q6.13 13.94 6.13 13.13L6.13 13.13L6.13 13.13Q6.13 12.60 5.78 12.09L5.78 12.09L5.78 12.09Q5.43 11.58 4.91 11.19L4.91 11.19L4.91 11.19Q4.40 10.79 3.78 10.31L3.78 10.31L3.78 10.31Q3.16 9.83 2.65 9.38L2.65 9.38L2.65 9.38Q2.13 8.93 1.78 8.29L1.78 8.29L1.78 8.29Q1.43 7.64 1.43 6.94L1.43 6.94L1.43 6.94Q1.43 5.61 2.33 4.84L2.33 4.84L2.33 4.84Q3.23 4.06 4.94 4.06L4.94 4.06L4.94 4.06Q6.33 4.06 7.12 4.79L7.12 4.79L7.12 4.79Q7.91 5.53 7.91 6.32L7.91 6.32L7.91 6.32Q7.91 7.11 7.48 7.62L7.48 7.62L7.48 7.62Q7.06 8.12 6.31 8.12L6.31 8.12L6.31 8.12Q6.06 8.12 5.82 8.06L5.82 8.06L5.82 8.06Q6.51 7.34 6.51 6.52L6.51 6.52L6.51 6.52Q6.51 5.71 6.01 5.30L6.01 5.30L6.01 5.30Q5.50 4.89 4.73 4.89L4.73 4.89L4.73 4.89Q3.95 4.89 3.40 5.33L3.40 5.33L3.40 5.33Q2.86 5.78 2.86 6.69L2.86 6.69L2.86 6.69Q2.86 7.60 3.81 8.48ZM11.90 9.95L11.90 9.95L11.90 9.95Q11.49 10.65 11.28 11.39L11.28 11.39L11.28 11.39Q11.06 12.12 11.06 12.80L11.06 12.80L11.06 12.80Q11.06 13.47 11.36 13.94L11.36 13.94L11.36 13.94Q11.66 14.41 12.22 14.41L12.22 14.41L12.22 14.41Q13.01 14.41 13.69 13.55L13.69 13.55L13.69 13.55Q14.38 12.68 14.75 11.46L14.75 11.46L14.75 11.46Q15.12 10.23 15.12 9.19L15.12 9.19L15.12 9.19Q15.12 8.15 15.04 7.48L15.04 7.48L15.04 7.48Q15.37 7.45 15.46 7.45L15.46 7.45L15.46 7.45Q16.65 7.45 16.65 8.67L16.65 8.67L16.65 8.67Q16.65 8.93 16.31 10.83L16.31 10.83L16.31 10.83Q15.97 12.73 15.97 13.87L15.97 13.87L15.97 13.87Q15.97 15.01 16.41 15.89L16.41 15.89L16.41 15.89Q15.53 15.71 15.13 15.11L15.13 15.11L15.13 15.11Q14.73 14.52 14.73 13.40L14.73 13.40L14.73 13.40Q14.73 13.20 14.78 12.64L14.78 12.64L14.78 12.64Q14.41 13.97 13.45 14.78L13.45 14.78L13.45 14.78Q12.50 15.60 11.59 15.60L11.59 15.60L11.59 15.60Q10.67 15.60 10.11 14.90L10.11 14.90L10.11 14.90Q9.55 14.21 9.55 12.99L9.55 12.99L9.55 12.99Q9.55 11.76 10.00 10.59L10.00 10.59L10.00 10.59Q10.46 9.42 11.38 8.57L11.38 8.57L11.38 8.57Q12.29 7.71 13.43 7.71L13.43 7.71L13.43 7.71Q13.92 7.71 14.50 7.91L14.50 7.91L14.50 7.91Q13.68 8.12 12.99 8.68L12.99 8.68L12.99 8.68Q12.31 9.24 11.90 9.95ZM20.59 10.88L20.59 10.88Q21.10 9.06 21.80 8.20L21.80 8.20L21.80 8.20Q22.51 7.34 23.12 7.34L23.12 7.34L23.12 7.34Q23.73 7.34 24.04 7.79L24.04 7.79L24.04 7.79Q24.35 8.25 24.35 8.95L24.35 8.95L24.35 8.95Q24.35 9.65 23.98 10.16L23.98 10.16L23.98 10.16Q23.62 10.67 22.92 10.67L22.92 10.67L22.92 10.67Q22.69 10.67 22.57 10.64L22.57 10.64L22.57 10.64Q23.04 9.95 23.04 9.24L23.04 9.24L23.04 9.24Q23.04 8.74 22.64 8.74L22.64 8.74L22.64 8.74Q22.32 8.74 21.95 9.11L21.95 9.11L21.95 9.11Q21.59 9.49 21.25 10.16L21.25 10.16L21.25 10.16Q20.92 10.84 20.69 11.91L20.69 11.91L20.69 11.91Q20.47 12.99 20.47 14.24L20.47 14.24L20.47 14.24Q20.47 14.38 20.54 15.43L20.54 15.43L20.54 15.43Q20.17 15.46 20.12 15.46L20.12 15.46L20.12 15.46Q18.89 15.46 18.89 14.25L18.89 14.25L18.89 14.25Q18.89 13.97 19.18 12.10L19.18 12.10L19.18 12.10Q19.47 10.22 19.47 9.11L19.47 9.11L19.47 9.11Q19.47 7.99 19.24 7.06L19.24 7.06L19.24 7.06Q20.06 7.38 20.39 7.97L20.39 7.97L20.39 7.97Q20.72 8.57 20.72 9.36L20.72 9.36L20.72 9.36Q20.72 10.15 20.59 10.88L20.59 10.88ZM27.27 9.95L27.27 9.95L27.27 9.95Q26.87 10.65 26.65 11.39L26.65 11.39L26.65 11.39Q26.43 12.12 26.43 12.80L26.43 12.80L26.43 12.80Q26.43 13.47 26.73 13.94L26.73 13.94L26.73 13.94Q27.03 14.41 27.59 14.41L27.59 14.41L27.59 14.41Q28.38 14.41 29.06 13.55L29.06 13.55L29.06 13.55Q29.75 12.68 30.12 11.46L30.12 11.46L30.12 11.46Q30.49 10.23 30.49 9.19L30.49 9.19L30.49 9.19Q30.49 8.15 30.41 7.48L30.41 7.48L30.41 7.48Q30.74 7.45 30.83 7.45L30.83 7.45L30.83 7.45Q32.02 7.45 32.02 8.67L32.02 8.67L32.02 8.67Q32.02 8.93 31.68 10.83L31.68 10.83L31.68 10.83Q31.35 12.73 31.35 13.87L31.35 13.87L31.35 13.87Q31.35 15.01 31.78 15.89L31.78 15.89L31.78 15.89Q30.90 15.71 30.50 15.11L30.50 15.11L30.50 15.11Q30.10 14.52 30.10 13.40L30.10 13.40L30.10 13.40Q30.10 13.20 30.16 12.64L30.16 12.64L30.16 12.64Q29.78 13.97 28.83 14.78L28.83 14.78L28.83 14.78Q27.87 15.60 26.96 15.60L26.96 15.60L26.96 15.60Q26.04 15.60 25.48 14.90L25.48 14.90L25.48 14.90Q24.92 14.21 24.92 12.99L24.92 12.99L24.92 12.99Q24.92 11.76 25.38 10.59L25.38 10.59L25.38 10.59Q25.83 9.42 26.75 8.57L26.75 8.57L26.75 8.57Q27.66 7.71 28.80 7.71L28.80 7.71L28.80 7.71Q29.29 7.71 29.88 7.91L29.88 7.91L29.88 7.91Q29.05 8.12 28.36 8.68L28.36 8.68L28.36 8.68Q27.68 9.24 27.27 9.95ZM35.84 11.10L35.84 11.10Q36.30 9.52 37.26 8.44L37.26 8.44L37.26 8.44Q38.22 7.35 39.06 7.35L39.06 7.35L39.06 7.35Q39.90 7.35 40.25 7.86L40.25 7.86L40.25 7.86Q40.60 8.37 40.60 9.25L40.60 9.25L40.60 9.25Q40.60 10.12 40.33 11.70L40.33 11.70L40.33 11.70Q40.05 13.29 40.05 14.01L40.05 14.01L40.05 14.01Q40.05 14.73 40.24 15.06L40.24 15.06L40.24 15.06Q40.42 15.39 40.85 15.62L40.85 15.62L40.85 15.62Q40.67 15.64 40.33 15.64L40.33 15.64L40.33 15.64Q39.44 15.64 39.01 15.27L39.01 15.27L39.01 15.27Q38.58 14.90 38.58 14L38.58 14L38.58 14Q38.58 13.48 38.86 11.91L38.86 11.91L38.86 11.91Q39.14 10.33 39.14 9.59L39.14 9.59L39.14 9.59Q39.14 8.67 38.50 8.67L38.50 8.67L38.50 8.67Q38.12 8.67 37.66 9.07L37.66 9.07L37.66 9.07Q37.20 9.46 36.77 10.14L36.77 10.14L36.77 10.14Q36.34 10.82 36.06 11.87L36.06 11.87L36.06 11.87Q35.77 12.91 35.77 13.92L35.77 13.92L35.77 13.92Q35.77 14.94 35.85 15.43L35.85 15.43L35.85 15.43Q35.52 15.46 35.48 15.46L35.48 15.46L35.48 15.46Q34.82 15.46 34.50 15.18L34.50 15.18L34.50 15.18Q34.19 14.90 34.19 14.30L34.19 14.30L34.19 14.30Q34.19 13.71 34.44 12.01L34.44 12.01L34.44 12.01Q35.18 6.80 35.18 4.10L35.18 4.10L35.18 4.10Q35.18 2.88 35.01 2.46L35.01 2.46L35.01 2.46Q35.83 2.76 36.16 3.33L36.16 3.33L36.16 3.33Q36.48 3.91 36.48 4.91L36.48 4.91L36.48 4.91Q36.48 5.61 36.21 7.85L36.21 7.85L36.21 7.85Q35.94 10.09 35.84 11.10L35.84 11.10ZM52.00 11.02L52.00 11.02L51.37 11.03L51.37 11.03Q51.34 12.01 51.30 12.64L51.30 12.64L51.30 12.64Q51.25 13.26 51.02 13.58L51.02 13.58L51.02 13.58Q50.79 13.90 50.38 13.90L50.38 13.90L50.38 13.90Q49.97 13.90 49.78 13.87L49.78 13.87L49.78 13.87Q49.98 12.89 50.04 11.13L50.04 11.13L50.04 11.13Q49.41 11.17 48.60 11.17L48.60 11.17L48.60 11.17Q47.80 11.17 47.51 10.88L47.51 10.88L47.51 10.88Q47.22 10.58 47.22 10.00L47.22 10.00L47.22 10.00Q47.22 9.95 47.23 9.87L47.23 9.87L47.23 9.87Q47.24 9.79 47.24 9.74L47.24 9.74L47.24 9.74Q48.09 9.86 48.97 9.86L48.97 9.86L48.97 9.86Q49.85 9.86 50.06 9.84L50.06 9.84L50.06 9.84Q50.06 9.04 50.12 8.34L50.12 8.34L50.12 8.34Q50.18 7.63 50.41 7.31L50.41 7.31L50.41 7.31Q50.65 6.99 51.07 6.99L51.07 6.99L51.07 6.99Q51.49 6.99 51.65 7.01L51.65 7.01L51.65 7.01Q51.42 8.13 51.39 9.76L51.39 9.76L51.39 9.76Q52.23 9.70 52.94 9.70L52.94 9.70L52.94 9.70Q53.65 9.70 53.93 10.00L53.93 10.00L53.93 10.00Q54.22 10.29 54.22 10.88L54.22 10.88L54.22 10.88Q54.22 10.92 54.21 11.00L54.21 11.00L54.21 11.00Q54.21 11.09 54.21 11.13L54.21 11.13L54.21 11.13Q53.35 11.02 52.00 11.02ZM61.25 12.61L61.25 12.61L61.25 12.61Q61.54 10.64 61.70 8.82L61.70 8.82L61.70 8.82Q61.87 7 61.87 5.52L61.87 5.52L61.87 5.52Q61.87 4.03 61.67 3.57L61.67 3.57L61.67 3.57Q62.83 3.96 63.13 4.80L63.13 4.80L63.13 4.80Q64.22 4.20 65.37 4.20L65.37 4.20L65.37 4.20Q66.51 4.20 67.38 4.83L67.38 4.83L67.38 4.83Q68.24 5.46 68.23 6.52L68.23 6.52L68.23 6.52Q68.22 7.59 67.54 8.37L67.54 8.37L67.54 8.37Q66.85 9.16 65.59 9.58L65.59 9.58L65.59 9.58Q66.57 9.79 67.37 10.52L67.37 10.52L67.37 10.52Q68.17 11.26 68.17 12.33L68.17 12.33L68.17 12.33Q68.17 13.99 67.01 14.88L67.01 14.88L67.01 14.88Q65.86 15.76 64.11 15.76L64.11 15.76L64.11 15.76Q62.37 15.76 60.94 14.69L60.94 14.69L60.94 14.69Q60.96 14.57 61.25 12.61ZM66.79 6.95L66.79 6.95L66.79 6.95Q66.79 6.17 66.29 5.71L66.29 5.71L66.29 5.71Q65.79 5.24 64.92 5.24L64.92 5.24L64.92 5.24Q64.05 5.24 63.29 5.60L63.29 5.60L63.29 5.60Q63.29 6.48 62.92 10.00L62.92 10.00L62.92 10.00Q62.55 13.52 62.55 14.52L62.55 14.52L62.55 14.52Q63.27 14.77 63.95 14.77L63.95 14.77L63.95 14.77Q65.16 14.77 65.94 14.08L65.94 14.08L65.94 14.08Q66.72 13.38 66.72 12.21L66.72 12.21L66.72 12.21Q66.72 11.33 65.92 10.66L65.92 10.66L65.92 10.66Q65.11 10.00 63.69 9.94L63.69 9.94L63.64 9.44L63.64 9.44Q65.13 9.25 65.96 8.49L65.96 8.49L65.96 8.49Q66.79 7.73 66.79 6.95ZM73.85 8.08L73.85 8.08L73.85 8.08Q73.01 8.08 72.43 9.04L72.43 9.04L72.43 9.04Q71.85 10.01 71.65 11.31L71.65 11.31L72.04 11.31L72.04 11.31Q72.79 11.31 73.33 11.10L73.33 11.10L73.33 11.10Q73.88 10.89 74.17 10.56L74.17 10.56L74.17 10.56Q74.73 9.91 74.73 9.10L74.73 9.10L74.73 9.10Q74.73 8.64 74.51 8.36L74.51 8.36L74.51 8.36Q74.30 8.08 73.85 8.08ZM75.82 13.75L75.82 13.75Q75.18 14.80 74.41 15.22L74.41 15.22L74.41 15.22Q73.64 15.64 72.62 15.64L72.62 15.64L72.62 15.64Q71.61 15.64 70.85 14.74L70.85 14.74L70.85 14.74Q70.10 13.85 70.10 12.22L70.10 12.22L70.10 12.22Q70.10 10.37 71.09 8.92L71.09 8.92L71.09 8.92Q71.58 8.22 72.37 7.78L72.37 7.78L72.37 7.78Q73.16 7.35 74.12 7.35L74.12 7.35L74.12 7.35Q76.22 7.35 76.22 9.38L76.22 9.38L76.22 9.38Q76.22 10.60 75.27 11.29L75.27 11.29L75.27 11.29Q74.33 11.98 73.08 11.98L73.08 11.98L73.08 11.98Q72.25 11.98 71.60 11.83L71.60 11.83L71.60 11.83Q71.58 11.97 71.58 12.26L71.58 12.26L71.58 12.26Q71.58 14.74 73.05 14.74L73.05 14.74L73.05 14.74Q74.44 14.74 75.31 13.37L75.31 13.37L75.31 13.37Q75.82 13.44 75.82 13.75L75.82 13.75ZM81.44 8.08L81.44 8.08L81.44 8.08Q80.60 8.08 80.02 9.04L80.02 9.04L80.02 9.04Q79.44 10.01 79.24 11.31L79.24 11.31L79.63 11.31L79.63 11.31Q80.37 11.31 80.92 11.10L80.92 11.10L80.92 11.10Q81.47 10.89 81.76 10.56L81.76 10.56L81.76 10.56Q82.32 9.91 82.32 9.10L82.32 9.10L82.32 9.10Q82.32 8.64 82.10 8.36L82.10 8.36L82.10 8.36Q81.89 8.08 81.44 8.08ZM83.41 13.75L83.41 13.75Q82.77 14.80 82.00 15.22L82.00 15.22L82.00 15.22Q81.23 15.64 80.21 15.64L80.21 15.64L80.21 15.64Q79.20 15.64 78.44 14.74L78.44 14.74L78.44 14.74Q77.69 13.85 77.69 12.22L77.69 12.22L77.69 12.22Q77.69 10.37 78.68 8.92L78.68 8.92L78.68 8.92Q79.17 8.22 79.96 7.78L79.96 7.78L79.96 7.78Q80.75 7.35 81.70 7.35L81.70 7.35L81.70 7.35Q83.80 7.35 83.80 9.38L83.80 9.38L83.80 9.38Q83.80 10.60 82.86 11.29L82.86 11.29L82.86 11.29Q81.91 11.98 80.67 11.98L80.67 11.98L80.67 11.98Q79.84 11.98 79.18 11.83L79.18 11.83L79.18 11.83Q79.17 11.97 79.17 12.26L79.17 12.26L79.17 12.26Q79.17 14.74 80.64 14.74L80.64 14.74L80.64 14.74Q82.03 14.74 82.89 13.37L82.89 13.37L82.89 13.37Q83.41 13.44 83.41 13.75L83.41 13.75ZM88.33 8.04L88.33 8.04L88.33 8.04Q87.86 8.04 87.49 8.33L87.49 8.33L87.49 8.33Q87.12 8.62 87.12 9.14L87.12 9.14L87.12 9.14Q87.12 9.65 87.46 10.09L87.46 10.09L87.46 10.09Q87.81 10.54 88.30 10.89L88.30 10.89L88.30 10.89Q88.79 11.24 89.29 11.61L89.29 11.61L89.29 11.61Q90.47 12.47 90.47 13.47L90.47 13.47L90.47 13.47Q90.47 14.46 89.67 15.09L89.67 15.09L89.67 15.09Q88.87 15.71 87.63 15.71L87.63 15.71L87.63 15.71Q86.39 15.71 85.71 15.22L85.71 15.22L85.71 15.22Q85.04 14.73 85.04 14.06L85.04 14.06L85.04 14.06Q85.04 13.40 85.37 13.02L85.37 13.02L85.37 13.02Q85.71 12.64 86.18 12.64L86.18 12.64L86.18 12.64Q86.44 12.64 86.66 12.75L86.66 12.75L86.66 12.75Q86.35 13.15 86.35 13.68L86.35 13.68L86.35 13.68Q86.35 14.21 86.68 14.57L86.68 14.57L86.68 14.57Q87.01 14.94 87.59 14.94L87.59 14.94L87.59 14.94Q88.17 14.94 88.58 14.64L88.58 14.64L88.58 14.64Q88.98 14.34 88.98 13.87L88.98 13.87L88.98 13.87Q88.98 13.41 88.75 13.06L88.75 13.06L88.75 13.06Q88.51 12.71 88.15 12.46L88.15 12.46L88.15 12.46Q87.79 12.21 87.37 11.90L87.37 11.90L87.37 11.90Q86.95 11.59 86.60 11.29L86.60 11.29L86.60 11.29Q86.24 10.99 86.00 10.54L86.00 10.54L86.00 10.54Q85.76 10.08 85.76 9.53L85.76 9.53L85.76 9.53Q85.76 8.54 86.52 7.90L86.52 7.90L86.52 7.90Q87.28 7.27 88.42 7.27L88.42 7.27L88.42 7.27Q89.57 7.27 90.10 7.74L90.10 7.74L90.10 7.74Q90.64 8.22 90.64 8.81L90.64 8.81L90.64 8.81Q90.64 9.41 90.34 9.79L90.34 9.79L90.34 9.79Q90.05 10.18 89.59 10.18L89.59 10.18L89.59 10.18Q89.36 10.18 89.07 10.05L89.07 10.05L89.07 10.05Q89.43 9.60 89.43 9.09L89.43 9.09L89.43 9.09Q89.43 8.57 89.12 8.30L89.12 8.30L89.12 8.30Q88.80 8.04 88.33 8.04ZM101.63 11.02L101.63 11.02L101.00 11.03L101.00 11.03Q100.97 12.01 100.93 12.64L100.93 12.64L100.93 12.64Q100.88 13.26 100.65 13.58L100.65 13.58L100.65 13.58Q100.42 13.90 100.01 13.90L100.01 13.90L100.01 13.90Q99.60 13.90 99.41 13.87L99.41 13.87L99.41 13.87Q99.61 12.89 99.67 11.13L99.67 11.13L99.67 11.13Q99.04 11.17 98.23 11.17L98.23 11.17L98.23 11.17Q97.43 11.17 97.14 10.88L97.14 10.88L97.14 10.88Q96.85 10.58 96.85 10.00L96.85 10.00L96.85 10.00Q96.85 9.95 96.86 9.87L96.86 9.87L96.86 9.87Q96.87 9.79 96.87 9.74L96.87 9.74L96.87 9.74Q97.72 9.86 98.60 9.86L98.60 9.86L98.60 9.86Q99.48 9.86 99.69 9.84L99.69 9.84L99.69 9.84Q99.69 9.04 99.75 8.34L99.75 8.34L99.75 8.34Q99.81 7.63 100.04 7.31L100.04 7.31L100.04 7.31Q100.28 6.99 100.70 6.99L100.70 6.99L100.70 6.99Q101.12 6.99 101.28 7.01L101.28 7.01L101.28 7.01Q101.05 8.13 101.02 9.76L101.02 9.76L101.02 9.76Q101.86 9.70 102.57 9.70L102.57 9.70L102.57 9.70Q103.28 9.70 103.56 10.00L103.56 10.00L103.56 10.00Q103.85 10.29 103.85 10.88L103.85 10.88L103.85 10.88Q103.85 10.92 103.84 11.00L103.84 11.00L103.84 11.00Q103.84 11.09 103.84 11.13L103.84 11.13L103.84 11.13Q102.98 11.02 101.63 11.02ZM114.90 10.67L114.90 10.67L113.65 10.65L113.65 10.65Q112.97 10.65 112.60 10.68L112.60 10.68L112.60 10.68Q112.38 12.70 112.38 13.92L112.38 13.92L112.38 13.92Q112.38 15.15 112.46 15.64L112.46 15.64L112.46 15.64Q112.10 15.67 112.07 15.67L112.07 15.67L112.07 15.67Q111.43 15.67 111.11 15.39L111.11 15.39L111.11 15.39Q110.80 15.11 110.80 14.43L110.80 14.43L110.80 14.43Q110.80 13.76 111.20 10.89L111.20 10.89L111.20 10.89Q110.81 10.99 110.53 11.10L110.53 11.10L110.53 11.10Q110.50 10.85 110.50 10.70L110.50 10.70L110.50 10.70Q110.50 9.84 111.37 9.63L111.37 9.63L111.37 9.63Q111.69 7.28 111.72 5.89L111.72 5.89L111.72 5.89Q111.17 5.89 110.98 5.75L110.98 5.75L110.98 5.75Q110.78 5.60 110.78 5.17L110.78 5.17L110.78 5.17Q110.78 4.75 110.89 4.44L110.89 4.44L110.89 4.44Q112.34 4.63 114.03 4.63L114.03 4.63L114.03 4.63Q115.72 4.63 117.26 4.33L117.26 4.33L117.26 4.33Q117.08 5.46 115.68 5.68L115.68 5.68L115.68 5.68Q114.86 5.82 113.18 5.88L113.18 5.88L113.18 5.88Q113.18 6.54 112.74 9.58L112.74 9.58L112.74 9.58Q113.61 9.60 114.00 9.60L114.00 9.60L114.00 9.60Q115.23 9.60 115.75 9.20L115.75 9.20L115.75 9.20Q115.78 9.42 115.78 9.56L115.78 9.56L115.78 9.56Q115.78 10.67 114.90 10.67ZM117.74 14.41L117.74 14.41L117.74 14.41Q117.73 14.18 117.73 13.69L117.73 13.69L117.73 13.69Q117.73 13.19 118.19 9.44L118.19 9.44L118.19 9.44Q118.66 5.68 118.66 4.28L118.66 4.28L118.66 4.28Q118.66 2.88 118.50 2.46L118.50 2.46L118.50 2.46Q119.28 2.76 119.60 3.33L119.60 3.33L119.60 3.33Q119.92 3.91 119.92 4.72L119.92 4.72L119.92 4.72Q119.92 5.53 119.52 8.92L119.52 8.92L119.52 8.92Q119.11 12.31 119.11 14.38L119.11 14.38L119.11 14.38Q119.11 14.83 119.17 15.64L119.17 15.64L119.17 15.64Q118.40 15.58 118.08 15.27L118.08 15.27L118.08 15.27Q117.81 15.02 117.74 14.41ZM127.13 10.83L127.13 10.83L127.13 10.83Q127.13 9.46 126.79 8.87L126.79 8.87L126.79 8.87Q126.45 8.27 125.81 8.27L125.81 8.27L125.81 8.27Q125.17 8.27 124.53 8.90L124.53 8.90L124.53 8.90Q123.89 9.52 123.51 10.44L123.51 10.44L123.51 10.44Q123.14 11.35 123.14 12.34L123.14 12.34L123.14 12.34Q123.14 13.33 123.52 14.05L123.52 14.05L123.52 14.05Q123.90 14.77 124.67 14.77L124.67 14.77L124.67 14.77Q125.76 14.77 126.45 13.48L126.45 13.48L126.45 13.48Q127.13 12.19 127.13 10.83ZM123.07 10.29L123.07 10.29Q123.61 8.78 124.51 8.09L124.51 8.09L124.51 8.09Q125.41 7.39 126.34 7.39L126.34 7.39L126.34 7.39Q127.27 7.39 127.89 8.21L127.89 8.21L127.89 8.21Q128.51 9.03 128.51 10.43L128.51 10.43L128.51 10.43Q128.51 11.97 127.92 13.29L127.92 13.29L127.92 13.29Q127.26 14.74 126.01 15.32L126.01 15.32L126.01 15.32Q125.34 15.64 124.53 15.64L124.53 15.64L124.53 15.64Q123.40 15.64 122.54 14.69L122.54 14.69L122.54 14.69Q121.69 13.75 121.69 11.99L121.69 11.99L121.69 11.99Q121.69 10.23 122.44 8.95L122.44 8.95L122.44 8.95Q123.20 7.66 124.50 7.15L124.50 7.15L124.50 7.15Q124.78 7.15 124.78 7.43L124.78 7.43L124.78 7.43Q123.40 8.34 123.07 10.29L123.07 10.29ZM136.86 15.43L136.86 15.43Q136.81 15.47 136.51 15.55L136.51 15.55L136.51 15.55Q136.21 15.62 135.95 15.62L135.95 15.62L135.95 15.62Q135.69 15.62 135.65 15.41L135.65 15.41L135.65 15.41Q135.45 14.55 135.18 12.70L135.18 12.70L135.18 12.70Q134.92 10.85 134.82 10.29L134.82 10.29L134.82 10.29Q134.54 10.92 133.64 12.77L133.64 12.77L133.64 12.77Q132.73 14.62 132.41 15.43L132.41 15.43L132.41 15.43Q132.34 15.48 132.11 15.55L132.11 15.55L132.11 15.55Q131.88 15.62 131.63 15.62L131.63 15.62L131.63 15.62Q131.38 15.62 131.33 15.41L131.33 15.41L131.33 15.41Q131.12 14.52 130.89 12.73L130.89 12.73L130.89 12.73Q130.65 10.95 130.38 9.61L130.38 9.61L130.38 9.61Q130.12 8.27 129.71 7.59L129.71 7.59L129.71 7.59Q130.24 7.22 130.60 7.22L130.60 7.22L130.60 7.22Q130.96 7.22 131.19 7.38L131.19 7.38L131.19 7.38Q131.42 7.55 131.56 7.89L131.56 7.89L131.56 7.89Q131.71 8.23 131.80 8.64L131.80 8.64L131.80 8.64Q131.88 9.06 131.94 9.70L131.94 9.70L131.94 9.70Q131.99 10.33 132.03 10.92L132.03 10.92L132.03 10.92Q132.16 12.80 132.30 13.96L132.30 13.96L132.30 13.96Q133.91 10.22 134.39 8.43L134.39 8.43L134.39 8.43Q134.23 7.98 134.02 7.59L134.02 7.59L134.02 7.59Q134.55 7.22 134.90 7.22L134.90 7.22L134.90 7.22Q135.25 7.22 135.48 7.38L135.48 7.38L135.48 7.38Q135.70 7.55 135.84 7.89L135.84 7.89L135.84 7.89Q135.98 8.23 136.07 8.64L136.07 8.64L136.07 8.64Q136.16 9.06 136.23 9.70L136.23 9.70L136.23 9.70Q136.29 10.33 136.33 10.92L136.33 10.92L136.33 10.92Q136.44 12.56 136.61 13.96L136.61 13.96L136.61 13.96Q137.31 12.32 137.68 11.45L137.68 11.45L137.68 11.45Q138.04 10.57 138.46 9.21L138.46 9.21L138.46 9.21Q138.88 7.85 138.89 7.04L138.89 7.04L138.89 7.04Q139.76 7.46 139.76 8.40L139.76 8.40L139.76 8.40Q139.76 9.03 139.26 10.12L139.26 10.12L139.26 10.12Q138.77 11.21 138.01 12.73L138.01 12.73L138.01 12.73Q137.26 14.25 136.86 15.43L136.86 15.43ZM144.42 8.08L144.42 8.08L144.42 8.08Q143.58 8.08 143.00 9.04L143.00 9.04L143.00 9.04Q142.42 10.01 142.23 11.31L142.23 11.31L142.62 11.31L142.62 11.31Q143.36 11.31 143.91 11.10L143.91 11.10L143.91 11.10Q144.45 10.89 144.75 10.56L144.75 10.56L144.75 10.56Q145.31 9.91 145.31 9.10L145.31 9.10L145.31 9.10Q145.31 8.64 145.09 8.36L145.09 8.36L145.09 8.36Q144.87 8.08 144.42 8.08ZM146.40 13.75L146.40 13.75Q145.75 14.80 144.98 15.22L144.98 15.22L144.98 15.22Q144.21 15.64 143.20 15.64L143.20 15.64L143.20 15.64Q142.18 15.64 141.43 14.74L141.43 14.74L141.43 14.74Q140.67 13.85 140.67 12.22L140.67 12.22L140.67 12.22Q140.67 10.37 141.67 8.92L141.67 8.92L141.67 8.92Q142.16 8.22 142.95 7.78L142.95 7.78L142.95 7.78Q143.74 7.35 144.69 7.35L144.69 7.35L144.69 7.35Q146.79 7.35 146.79 9.38L146.79 9.38L146.79 9.38Q146.79 10.60 145.84 11.29L145.84 11.29L145.84 11.29Q144.90 11.98 143.65 11.98L143.65 11.98L143.65 11.98Q142.83 11.98 142.17 11.83L142.17 11.83L142.17 11.83Q142.16 11.97 142.16 12.26L142.16 12.26L142.16 12.26Q142.16 14.74 143.63 14.74L143.63 14.74L143.63 14.74Q145.01 14.74 145.88 13.37L145.88 13.37L145.88 13.37Q146.40 13.44 146.40 13.75L146.40 13.75ZM150.25 10.88L150.25 10.88Q150.75 9.06 151.46 8.20L151.46 8.20L151.46 8.20Q152.17 7.34 152.77 7.34L152.77 7.34L152.77 7.34Q153.38 7.34 153.69 7.79L153.69 7.79L153.69 7.79Q154.00 8.25 154.00 8.95L154.00 8.95L154.00 8.95Q154.00 9.65 153.64 10.16L153.64 10.16L153.64 10.16Q153.27 10.67 152.57 10.67L152.57 10.67L152.57 10.67Q152.35 10.67 152.22 10.64L152.22 10.64L152.22 10.64Q152.70 9.95 152.70 9.24L152.70 9.24L152.70 9.24Q152.70 8.74 152.29 8.74L152.29 8.74L152.29 8.74Q151.97 8.74 151.61 9.11L151.61 9.11L151.61 9.11Q151.24 9.49 150.91 10.16L150.91 10.16L150.91 10.16Q150.57 10.84 150.35 11.91L150.35 11.91L150.35 11.91Q150.12 12.99 150.12 14.24L150.12 14.24L150.12 14.24Q150.12 14.38 150.19 15.43L150.19 15.43L150.19 15.43Q149.83 15.46 149.77 15.46L149.77 15.46L149.77 15.46Q148.54 15.46 148.54 14.25L148.54 14.25L148.54 14.25Q148.54 13.97 148.83 12.10L148.83 12.10L148.83 12.10Q149.13 10.22 149.13 9.11L149.13 9.11L149.13 9.11Q149.13 7.99 148.89 7.06L148.89 7.06L148.89 7.06Q149.72 7.38 150.04 7.97L150.04 7.97L150.04 7.97Q150.37 8.57 150.37 9.36L150.37 9.36L150.37 9.36Q150.37 10.15 150.25 10.88L150.25 10.88ZM157.80 8.04L157.80 8.04L157.80 8.04Q157.33 8.04 156.96 8.33L156.96 8.33L156.96 8.33Q156.59 8.62 156.59 9.14L156.59 9.14L156.59 9.14Q156.59 9.65 156.93 10.09L156.93 10.09L156.93 10.09Q157.28 10.54 157.77 10.89L157.77 10.89L157.77 10.89Q158.26 11.24 158.76 11.61L158.76 11.61L158.76 11.61Q159.94 12.47 159.94 13.47L159.94 13.47L159.94 13.47Q159.94 14.46 159.14 15.09L159.14 15.09L159.14 15.09Q158.34 15.71 157.10 15.71L157.10 15.71L157.10 15.71Q155.86 15.71 155.18 15.22L155.18 15.22L155.18 15.22Q154.50 14.73 154.50 14.06L154.50 14.06L154.50 14.06Q154.50 13.40 154.84 13.02L154.84 13.02L154.84 13.02Q155.18 12.64 155.65 12.64L155.65 12.64L155.65 12.64Q155.90 12.64 156.13 12.75L156.13 12.75L156.13 12.75Q155.82 13.15 155.82 13.68L155.82 13.68L155.82 13.68Q155.82 14.21 156.15 14.57L156.15 14.57L156.15 14.57Q156.48 14.94 157.06 14.94L157.06 14.94L157.06 14.94Q157.64 14.94 158.05 14.64L158.05 14.64L158.05 14.64Q158.45 14.34 158.45 13.87L158.45 13.87L158.45 13.87Q158.45 13.41 158.21 13.06L158.21 13.06L158.21 13.06Q157.98 12.71 157.62 12.46L157.62 12.46L157.62 12.46Q157.26 12.21 156.84 11.90L156.84 11.90L156.84 11.90Q156.42 11.59 156.06 11.29L156.06 11.29L156.06 11.29Q155.71 10.99 155.47 10.54L155.47 10.54L155.47 10.54Q155.23 10.08 155.23 9.53L155.23 9.53L155.23 9.53Q155.23 8.54 155.99 7.90L155.99 7.90L155.99 7.90Q156.74 7.27 157.89 7.27L157.89 7.27L157.89 7.27Q159.04 7.27 159.57 7.74L159.57 7.74L159.57 7.74Q160.10 8.22 160.10 8.81L160.10 8.81L160.10 8.81Q160.10 9.41 159.81 9.79L159.81 9.79L159.81 9.79Q159.52 10.18 159.05 10.18L159.05 10.18L159.05 10.18Q158.83 10.18 158.54 10.05L158.54 10.05L158.54 10.05Q158.90 9.60 158.90 9.09L158.90 9.09L158.90 9.09Q158.90 8.57 158.58 8.30L158.58 8.30L158.58 8.30Q158.27 8.04 157.80 8.04Z"></path></g><!----><g data-v-423bf9ae="" id="102b8a37-dc44-47b3-afe0-1aaeaec2e5e0" transform="matrix(1.190001849088363,0,0,1.190001849088363,-6.852180503019504,-19.13614488924179)" stroke="none" fill="black"><path d="M93.508 30.614c-2.075-2.125-6.327-2.919-9.858-1.079a6.112 6.112 0 0 0-1.168-1.152c1.813-3.572.82-8.028-1.498-10.293-2.045-1.997-4.814-2.114-7.227-.305a1.502 1.502 0 0 0 1.801 2.401c1.247-.938 2.337-.919 3.329.051 1.512 1.477 2.087 4.617.82 6.936a8.48 8.48 0 0 0-1.56-.142c-2.401 0-4.794.897-6.223 1.434l-.3.112c-1.289.478-2.521.98-3.703 1.506-3.106-.812-6.442-1.402-9.431-1.402-3.808 0-6.619.947-8.356 2.815-1.467 1.578-2.112 3.736-1.917 6.417.197 2.696 1.322 4.637 3.253 5.719a22.156 22.156 0 0 0-.955 1.914c-3.468 8.013-.662 14.854-.541 15.143l.232.552.549.24c.125.054 3.105 1.334 7.429 1.334a21.7 21.7 0 0 0 10.141-2.485c.018.036.03.075.049.111.741 1.441 2.356 3.214 5.839 3.468.315.022.62.034.915.034 3.056 0 5.408-1.235 6.802-3.571 2.321-3.891 1.617-10.292.183-15.879a63.703 63.703 0 0 0 2.042-4.782c1.226-3.22 1.295-5.65.826-7.472 2.312-1.245 5.109-.828 6.382.474.814.833.759 1.881-.166 3.112a1.502 1.502 0 0 0 1.199 2.401c.456 0 .906-.207 1.201-.6 2.164-2.888 1.373-5.515-.089-7.012zM79.354 58.833c-.953 1.599-2.525 2.259-4.922 2.082-2.271-.165-3.022-1.134-3.39-1.848-.051-.099-.079-.217-.123-.322-.395-.951-.502-2.151-.388-3.516.078-.943.25-1.954.51-3.018.417-1.703 1.037-3.518 1.752-5.319a69.63 69.63 0 0 1 1.715-3.941 86.18 86.18 0 0 1 2.386-4.686l.081.081c1.127 2.778 2.306 6.56 2.956 10.238.715 4.046.789 7.959-.577 10.249zM51.21 37.694c-.134-1.841.232-3.2 1.121-4.156 1.147-1.233 3.22-1.858 6.16-1.858 1.633 0 3.399.2 5.176.522 3.716.675 7.47 1.891 10.128 2.965l.056.056a89.51 89.51 0 0 1-4.683 2.389 67.483 67.483 0 0 1-3.938 1.719c-1.776.707-3.597 1.321-5.331 1.739-1.172.282-2.3.469-3.349.529-.237.014-.479.031-.707.031-1.146 0-2.056-.167-2.757-.521-1.163-.588-1.75-1.693-1.876-3.415zm20.211 2.17l.825.825a72.816 72.816 0 0 0-1.768 3.889l-2.947-2.947a76.192 76.192 0 0 0 3.89-1.767zm-9.08 3.647l6.267 6.268c-.467 1.592-.821 3.172-.989 4.667l-9.933-9.932c1.483-.172 3.059-.529 4.655-1.003zm-2.186 16.2l-8.198-8.198a17.81 17.81 0 0 1 1.19-4.467l11.587 11.587a18.496 18.496 0 0 1-4.579 1.078zm21.197-21.07c-.186.487-.374.961-.564 1.426-.787-2.304-1.593-4.218-2.178-5.388a1.501 1.501 0 0 0-.438-.727 1.492 1.492 0 0 0-.73-.437c-1.188-.601-2.924-1.333-4.974-2.049.068-.025.133-.053.201-.078l.31-.116c1.239-.465 3.312-1.242 5.169-1.242 1.228 0 2.156.331 2.838 1.013 1.565 1.566 1.689 4.122.366 7.598zM44.735 66.188a1.5 1.5 0 0 1-.608-2.872c1.37-.607 2.185-1.014 2.202-1.022a1.5 1.5 0 0 1 1.343 2.684s-.865.433-2.33 1.081a1.502 1.502 0 0 1-.607.129zM15.426 90.381a1.5 1.5 0 0 1-.476-2.922 34.087 34.087 0 0 0 4.474-1.841 1.5 1.5 0 0 1 1.348 2.68 37.14 37.14 0 0 1-4.87 2.007 1.552 1.552 0 0 1-.476.076zm8.918-4.649a1.5 1.5 0 0 1-.974-2.641c.206-.176.401-.353.585-.531a52.833 52.833 0 0 0 2.794-2.93 1.498 1.498 0 0 1 2.116-.136c.622.547.684 1.494.136 2.116a54.965 54.965 0 0 1-2.955 3.101c-.229.223-.474.444-.73.663-.283.24-.628.358-.972.358zm6.636-7.595a1.5 1.5 0 0 1-1.239-2.344c.953-1.402 1.744-2.803 2.35-4.163a1.497 1.497 0 0 1 1.979-.761 1.498 1.498 0 0 1 .761 1.979c-.678 1.523-1.556 3.082-2.609 4.632-.29.427-.762.657-1.242.657zm-5.601-6.365a1.5 1.5 0 0 1-.124-2.995 38.79 38.79 0 0 0 4.808-.737 1.5 1.5 0 1 1 .627 2.933 41.9 41.9 0 0 1-5.183.794 1.37 1.37 0 0 1-.128.005zm-5.043-.065c-.065 0-.132-.004-.198-.013-2.06-.272-3.858-.86-5.347-1.749a1.5 1.5 0 0 1 1.537-2.577c1.136.678 2.55 1.133 4.202 1.351a1.5 1.5 0 0 1-.194 2.988zm14.931-1.977a1.503 1.503 0 0 1-1.494-1.363 1.49 1.49 0 0 1-.315-1.185c.12-.744.181-1.484.181-2.2 0-.782-.073-1.558-.217-2.304a1.5 1.5 0 1 1 2.945-.569c.181.934.271 1.899.271 2.872 0 .413-.017.832-.049 1.253a78.95 78.95 0 0 0 2.938-1.04 1.501 1.501 0 0 1 1.055 2.809 80.545 80.545 0 0 1-4.878 1.662 1.475 1.475 0 0 1-.437.065zM12.181 66.5a1.502 1.502 0 0 1-1.344-.831c-.697-1.4-1.146-3.044-1.329-4.884-.02-.186-.035-.373-.047-.558a1.5 1.5 0 0 1 1.4-1.594 1.49 1.49 0 0 1 1.594 1.4c.01.147.021.296.037.448.148 1.48.495 2.774 1.03 3.849a1.502 1.502 0 0 1-1.341 2.17zm20.828-7.26c-.489 0-.97-.239-1.258-.681a13.195 13.195 0 0 0-3.093-3.289 1.5 1.5 0 1 1 1.815-2.389 16.181 16.181 0 0 1 3.792 4.039 1.5 1.5 0 0 1-1.256 2.32zm-21.246-2.542a1.5 1.5 0 0 1-1.355-2.142c.869-1.837 2.327-3.289 4.217-4.2a1.5 1.5 0 0 1 1.303 2.702c-1.282.618-2.228 1.554-2.809 2.781a1.497 1.497 0 0 1-1.356.859zm13.373-3.519c-.169 0-.341-.028-.509-.089-1.474-.531-3.018-.827-4.467-.855a1.5 1.5 0 0 1-1.47-1.53c.017-.828.696-1.437 1.53-1.47 1.771.035 3.646.393 5.424 1.033a1.5 1.5 0 0 1-.508 2.911zM7.998 92.136a1.5 1.5 0 0 1-.21-2.985c.783-.111 1.583-.25 2.377-.412a1.5 1.5 0 0 1 .6 2.94c-.852.173-1.711.321-2.553.442a1.55 1.55 0 0 1-.214.015z"></path></g><!----></svg>