<svg data-v-423bf9ae="" xmlns="http://www.w3.org/2000/svg" viewBox="0 0 780 90" class="iconLeft"><!----><!----><!----><g data-v-423bf9ae="" id="a4fb5960-5423-4047-8258-392b508be5bc" fill="#000000" transform="matrix(5.309734423650313,0,0,5.309734423650313,125.39378301161071,0.13274315171125295)"><path d="M1.48 6.54C1.48 9.04 5.74 9.10 5.74 11.51C5.74 12.85 4.40 13.55 3.14 13.55C1.68 13.55 0.99 12.63 0.99 11.59C0.99 10.95 1.26 10.26 1.76 9.72C0.99 9.72-0.03 10.14-0.03 11.59C-0.03 13.29 1.37 14.10 2.90 14.10C4.62 14.10 6.55 13.05 6.55 11.12C6.55 8.26 2.37 8.30 2.37 6.22C2.37 5.05 3.68 3.14 5.45 3.14C6.05 3.14 6.23 3.36 6.23 3.74C6.23 4.55 5.40 5.89 5.40 6.68C5.40 6.99 5.53 7.21 5.87 7.28C6.31 6.57 6.94 5.22 6.94 4.20C6.94 3.40 6.57 2.80 5.47 2.80C3.04 2.80 1.48 4.98 1.48 6.54ZM11.58 9.91C10.89 10.92 9.51 12.96 8.64 12.96C8.39 12.96 8.26 12.80 8.26 12.42C8.26 11.06 9.83 8.46 11.14 8.46C11.65 8.46 11.83 8.82 11.83 9.24C11.83 9.39 11.80 9.58 11.76 9.73C12.17 9.73 12.45 9.59 12.45 9.13C12.45 8.50 11.90 8.08 11.17 8.08C9.35 8.08 7.29 10.71 7.29 12.38C7.29 13.16 7.74 13.54 8.33 13.54C9.02 13.54 9.63 12.99 10.44 11.91C10.42 12.07 10.40 12.21 10.40 12.32C10.40 12.81 10.72 13.30 11.41 13.30C12.40 13.30 13.59 12.26 14.18 10.75L14.04 10.61C13.20 12.10 12.31 12.82 11.80 12.82C11.47 12.82 11.33 12.49 11.33 12.21C11.33 11.54 12.14 10.58 12.14 10.26C12.14 10.05 11.75 9.94 11.58 9.91ZM13.92 11.34C14.21 10.84 14.73 9.76 15.16 8.65C15.51 8.90 15.95 9.11 15.95 9.72C15.95 10.46 15.18 11.51 15.18 12.33C15.18 12.88 15.57 13.24 16.20 13.24C17.39 13.24 18.59 11.98 19.12 10.79L18.94 10.65C18.59 11.47 17.44 12.74 16.56 12.74C16.34 12.74 16.14 12.66 16.14 12.32C16.14 11.73 16.84 10.81 16.84 9.95C16.84 8.76 15.41 8.53 15.41 8.01C15.41 7.95 15.57 7.59 15.57 7.49C15.57 7.39 15.57 7.15 15.37 7.15C15.22 7.15 14.78 7.55 14.78 8.11C14.78 8.25 14.84 8.36 14.92 8.44C14.52 9.63 14.04 10.61 13.79 11.10ZM22.58 9.91C21.90 10.92 20.51 12.96 19.64 12.96C19.39 12.96 19.26 12.80 19.26 12.42C19.26 11.06 20.83 8.46 22.15 8.46C22.65 8.46 22.83 8.82 22.83 9.24C22.83 9.39 22.81 9.58 22.76 9.73C23.17 9.73 23.45 9.59 23.45 9.13C23.45 8.50 22.90 8.08 22.18 8.08C20.36 8.08 18.30 10.71 18.30 12.38C18.30 13.16 18.75 13.54 19.33 13.54C20.02 13.54 20.64 12.99 21.45 11.91C21.42 12.07 21.41 12.21 21.41 12.32C21.41 12.81 21.73 13.30 22.41 13.30C23.41 13.30 24.60 12.26 25.19 10.75L25.05 10.61C24.21 12.10 23.31 12.82 22.81 12.82C22.47 12.82 22.33 12.49 22.33 12.21C22.33 11.54 23.14 10.58 23.14 10.26C23.14 10.05 22.75 9.94 22.58 9.91ZM28.24 12.33C28.24 12.84 28.56 13.22 29.20 13.22C30.28 13.22 31.30 12.15 31.89 10.78L31.71 10.61C31.15 11.83 30.16 12.85 29.53 12.85C29.29 12.85 29.11 12.70 29.11 12.32C29.11 11.63 29.71 10.84 29.71 9.97C29.71 9.35 29.41 8.71 28.64 8.71C27.40 8.71 26.46 10.42 25.80 12.33C25.79 12.21 25.77 12.07 25.77 11.86C25.77 11.10 25.94 9.93 26.29 9.10C27.94 8.11 29.51 5.07 29.51 3.77C29.51 3.39 29.39 2.88 29.05 2.88C27.83 2.88 24.86 9.28 24.86 11.96C24.86 12.70 25.09 13.41 25.44 13.41C26.24 13.41 26.75 9.55 28.14 9.55C28.43 9.55 28.67 9.73 28.67 10.22C28.67 10.89 28.24 11.75 28.24 12.33ZM28.98 4.02C29.02 4.02 29.04 4.05 29.04 4.13C29.04 4.84 27.76 7.52 26.47 8.55C27.17 6.27 28.70 4.02 28.98 4.02ZM38.49 13.03C39.00 12.84 39.14 11.91 39.17 10.71L39.97 10.71C40.36 10.71 40.95 10.64 41.41 10.30C41.02 10.26 40.12 10.19 39.17 10.18C39.16 9.27 39.09 8.41 39.05 8.04C38.71 8.50 38.64 9.09 38.64 9.48L38.64 10.18C37.49 10.21 36.60 10.36 36.41 10.86C37.27 10.72 37.77 10.71 38.64 10.71C38.64 11.63 38.63 12.15 38.49 13.03ZM54.75 5.03C54.75 3.08 52.77 2.80 51.52 2.80C50.06 2.80 49.14 3.18 48.20 3.57C48.20 3.71 48.51 3.95 48.65 3.95C48.83 3.95 49.41 3.40 50.58 3.19C49.35 5.59 47.89 10.12 47.61 11.05C47.54 11.28 47.42 11.62 47.42 11.84C47.42 12.22 47.78 12.52 48.24 12.52C48.66 11.07 49.07 9.52 49.50 8.01C49.81 8.01 50.19 7.99 50.55 7.99C52.15 7.99 54.08 8.23 54.08 9.76C54.08 11.45 51.73 13.08 48.51 13.08C47.56 13.08 47.32 12.94 47.19 12.94C47.15 12.94 47.12 12.95 47.12 12.98C47.12 13.78 47.66 14.10 48.68 14.10C50.76 14.10 54.74 12.74 54.74 10.01C54.74 9.13 54.32 7.92 51.55 7.76C52.99 7.52 54.75 6.86 54.75 5.03ZM51.55 3.09C52.75 3.09 53.91 3.46 53.91 4.91C53.91 6.96 51.63 7.62 49.59 7.69C50.08 6.02 50.61 4.42 51.28 3.11C51.37 3.09 51.45 3.09 51.55 3.09ZM59.72 8.69C59.72 8.01 59.29 7.84 58.86 7.84C57.20 7.84 55.30 10.21 55.30 11.87C55.30 12.78 55.87 13.50 57.01 13.50C58.39 13.50 59.85 12.42 60.61 10.74L60.44 10.61C59.74 11.96 58.49 13.09 57.30 13.09C56.43 13.09 56.20 12.49 56.20 11.91C56.20 11.77 56.21 11.59 56.25 11.41C57.85 11.26 59.72 10.12 59.72 8.69ZM58.81 8.27C59.05 8.27 59.11 8.39 59.11 8.60C59.11 9.80 57.32 10.79 56.32 11.14C56.70 9.81 57.92 8.27 58.81 8.27ZM64.40 8.69C64.40 8.01 63.97 7.84 63.53 7.84C61.88 7.84 59.98 10.21 59.98 11.87C59.98 12.78 60.55 13.50 61.68 13.50C63.07 13.50 64.53 12.42 65.28 10.74L65.11 10.61C64.41 11.96 63.17 13.09 61.98 13.09C61.11 13.09 60.87 12.49 60.87 11.91C60.87 11.77 60.89 11.59 60.93 11.41C62.52 11.26 64.40 10.12 64.40 8.69ZM63.49 8.27C63.73 8.27 63.78 8.39 63.78 8.60C63.78 9.80 61.99 10.79 61.00 11.14C61.38 9.81 62.59 8.27 63.49 8.27ZM64.57 11.76C64.57 12.60 65.00 13.59 66.32 13.59C67.12 13.59 67.82 13.23 68.11 12.43C68.95 12.31 69.72 11.79 70.07 10.77L69.94 10.63C69.40 11.68 68.82 12.10 68.18 12.21C68.24 12.00 68.26 11.77 68.26 11.52C68.26 10.23 67.54 9.07 67.54 8.15C67.54 7.83 67.62 7.63 67.62 7.53C67.62 7.43 67.55 7.35 67.40 7.35C67.13 7.35 66.85 7.62 66.85 8.30L66.85 8.47C66.50 9.21 66.02 9.88 65.46 10.50C65.31 10.67 64.57 10.65 64.57 11.76ZM67.35 11.54C67.35 11.82 67.33 12.01 67.30 12.19C66.44 12.01 65.84 11.42 65.56 10.82C65.98 10.40 66.49 9.72 66.92 9.00C67.06 9.77 67.35 10.65 67.35 11.54ZM66.35 13.10C65.62 13.10 65.20 12.42 65.20 11.75C65.20 11.45 65.28 11.27 65.51 11.26C65.80 11.73 66.44 12.26 67.23 12.42C67.02 13.03 66.57 13.10 66.35 13.10ZM76.72 13.03C77.24 12.84 77.38 11.91 77.41 10.71L78.20 10.71C78.60 10.71 79.18 10.64 79.65 10.30C79.25 10.26 78.36 10.19 77.41 10.18C77.39 9.27 77.32 8.41 77.28 8.04C76.94 8.50 76.87 9.09 76.87 9.48L76.87 10.18C75.73 10.21 74.83 10.36 74.65 10.86C75.50 10.72 76.01 10.71 76.87 10.71C76.87 11.63 76.86 12.15 76.72 13.03ZM86.17 8.54C86.59 8.48 86.91 8.44 87.25 8.41C86.60 10.16 85.88 12.00 85.88 12.99C85.88 13.61 85.97 14.03 86.83 14.10C86.84 13.43 87.00 12.32 87.56 10.44L88.17 8.36C90.24 8.32 90.52 8.30 90.83 7.87C90.16 7.85 89.32 7.70 88.38 7.64C88.84 6.19 89.35 4.61 89.73 3.68C90.58 3.77 91.28 3.92 91.71 3.92C92.20 3.92 92.61 3.72 93.30 2.94C92.96 3.04 92.65 3.08 92.26 3.08C91.38 3.08 90.45 2.87 89.47 2.87C87.35 2.87 85.62 3.88 85.62 5.33C85.62 5.92 85.90 6.31 86.55 6.43C86.42 6.06 86.37 5.74 86.37 5.32C86.37 4.16 86.80 3.61 88.61 3.61C88.79 3.61 88.97 3.63 89.15 3.64C88.61 4.77 88.05 6.20 87.53 7.63C86.52 7.66 85.74 7.90 85.69 8.61ZM95.62 3.84C95.62 3.44 95.45 2.80 95.16 2.80C94.21 2.80 90.80 9.17 90.80 11.86C90.80 12.68 91.13 13.30 91.92 13.30C92.93 13.30 93.81 12.32 94.56 10.72L94.35 10.61C93.86 11.70 93.07 12.85 92.33 12.85C91.92 12.85 91.71 12.50 91.71 11.77C91.71 11.35 91.78 10.86 91.90 10.36C93.94 8.67 95.62 5.08 95.62 3.84ZM95.09 3.93C95.13 3.93 95.19 3.98 95.19 4.16C95.19 5.10 93.65 8.25 92.02 9.88C92.79 7.18 94.71 3.93 95.09 3.93ZM100.02 10.64C99.65 11.41 99.30 11.70 98.91 11.70C98.42 11.70 97.93 11.26 97.93 10.54C97.93 9.80 98.48 9.13 98.48 8.78C98.48 8.61 98.35 8.23 98.00 8.23C97.96 8.23 97.93 8.23 97.90 8.25C97.82 8.08 97.65 7.95 97.30 7.95C95.63 7.95 93.91 10.63 93.91 12.11C93.91 12.82 94.32 13.33 95.03 13.33C96.01 13.33 96.89 12.38 97.48 11.00C97.76 11.65 98.28 11.98 98.80 11.98C99.26 11.98 99.79 11.72 100.20 10.78ZM95.34 12.73C95.00 12.73 94.81 12.45 94.81 12.01C94.81 10.95 95.94 8.50 97.52 8.50C97.37 8.74 97.26 9.14 97.26 9.77C97.26 10.09 97.29 10.35 97.34 10.57C96.84 11.77 95.97 12.73 95.34 12.73ZM108.65 10.67C108.29 11.44 107.94 11.70 107.55 11.70C106.96 11.70 106.89 11.10 106.89 10.64C106.89 9.39 107.38 9.13 107.38 8.76C107.38 8.57 107.23 8.23 106.88 8.23C106.53 8.23 106.18 8.55 106.18 10.01C105.56 11.33 104.58 12.88 104.01 12.88C103.78 12.88 103.70 12.63 103.70 12.19C103.70 11.24 103.88 9.95 104.09 9.27C104.10 9.21 104.12 9.16 104.12 9.11C104.12 8.90 103.95 8.81 103.71 8.81C103.45 8.81 103.38 8.92 103.15 10.07C102.51 11.34 101.70 12.74 101.05 12.74C100.60 12.74 100.56 12.04 100.56 11.80C100.56 10.88 101.19 9.46 101.50 8.99C101.50 8.82 101.08 8.71 100.98 8.71C100.56 8.71 99.75 10.82 99.75 11.89C99.75 12.66 100.18 13.30 100.80 13.30C101.65 13.30 102.42 12.04 103.04 10.81C102.98 11.24 102.94 11.69 102.94 12.07C102.94 12.81 103.11 13.43 103.70 13.43C104.55 13.43 105.57 12.11 106.27 10.81C106.46 11.59 106.88 11.98 107.45 11.98C107.90 11.98 108.43 11.75 108.84 10.81ZM112.63 8.69C112.63 8.01 112.20 7.84 111.76 7.84C110.11 7.84 108.21 10.21 108.21 11.87C108.21 12.78 108.78 13.50 109.91 13.50C111.30 13.50 112.76 12.42 113.51 10.74L113.34 10.61C112.64 11.96 111.40 13.09 110.21 13.09C109.34 13.09 109.10 12.49 109.10 11.91C109.10 11.77 109.12 11.59 109.16 11.41C110.75 11.26 112.63 10.12 112.63 8.69ZM111.72 8.27C111.96 8.27 112.01 8.39 112.01 8.60C112.01 9.80 110.22 10.79 109.23 11.14C109.61 9.81 110.82 8.27 111.72 8.27ZM113.22 11.34C113.51 10.84 114.03 9.76 114.46 8.65C114.81 8.90 115.25 9.11 115.25 9.72C115.25 10.46 114.48 11.51 114.48 12.33C114.48 12.88 114.87 13.24 115.50 13.24C116.69 13.24 117.89 11.98 118.43 10.79L118.24 10.65C117.89 11.47 116.75 12.74 115.86 12.74C115.64 12.74 115.44 12.66 115.44 12.32C115.44 11.73 116.14 10.81 116.14 9.95C116.14 8.76 114.72 8.53 114.72 8.01C114.72 7.95 114.87 7.59 114.87 7.49C114.87 7.39 114.87 7.15 114.67 7.15C114.52 7.15 114.09 7.55 114.09 8.11C114.09 8.25 114.14 8.36 114.23 8.44C113.82 9.63 113.34 10.61 113.09 11.10ZM117.68 11.76C117.68 12.60 118.12 13.59 119.43 13.59C120.23 13.59 120.93 13.23 121.23 12.43C122.07 12.31 122.84 11.79 123.19 10.77L123.06 10.63C122.51 11.68 121.94 12.10 121.30 12.21C121.35 12.00 121.38 11.77 121.38 11.52C121.38 10.23 120.65 9.07 120.65 8.15C120.65 7.83 120.74 7.63 120.74 7.53C120.74 7.43 120.67 7.35 120.51 7.35C120.25 7.35 119.97 7.62 119.97 8.30L119.97 8.47C119.62 9.21 119.14 9.88 118.58 10.50C118.43 10.67 117.68 10.65 117.68 11.76ZM120.47 11.54C120.47 11.82 120.44 12.01 120.41 12.19C119.56 12.01 118.96 11.42 118.68 10.82C119.10 10.40 119.60 9.72 120.04 9.00C120.18 9.77 120.47 10.65 120.47 11.54ZM119.46 13.10C118.73 13.10 118.31 12.42 118.31 11.75C118.31 11.45 118.40 11.27 118.62 11.26C118.92 11.73 119.56 12.26 120.34 12.42C120.13 13.03 119.69 13.10 119.46 13.10Z"></path></g><defs data-v-423bf9ae=""><linearGradient data-v-423bf9ae="" gradientTransform="rotate(25)" id="8dda8bbf-2620-41a3-8127-4ba7f356fc31" x1="0%" y1="0%" x2="100%" y2="0%"><stop data-v-423bf9ae="" offset="0%" style="stop-color: rgb(180, 55, 61); stop-opacity: 1;"></stop><stop data-v-423bf9ae="" offset="100%" style="stop-color: rgb(178, 58, 203); stop-opacity: 1;"></stop></linearGradient></defs><g data-v-423bf9ae="" id="ab330cba-8bbe-4a93-a7ad-0dc620ab7a02" transform="matrix(1.190001849088363,0,0,1.190001849088363,-6.852180503019504,-19.13614488924179)" stroke="none" fill="url(#8dda8bbf-2620-41a3-8127-4ba7f356fc31)"><path d="M93.508 30.614c-2.075-2.125-6.327-2.919-9.858-1.079a6.112 6.112 0 0 0-1.168-1.152c1.813-3.572.82-8.028-1.498-10.293-2.045-1.997-4.814-2.114-7.227-.305a1.502 1.502 0 0 0 1.801 2.401c1.247-.938 2.337-.919 3.329.051 1.512 1.477 2.087 4.617.82 6.936a8.48 8.48 0 0 0-1.56-.142c-2.401 0-4.794.897-6.223 1.434l-.3.112c-1.289.478-2.521.98-3.703 1.506-3.106-.812-6.442-1.402-9.431-1.402-3.808 0-6.619.947-8.356 2.815-1.467 1.578-2.112 3.736-1.917 6.417.197 2.696 1.322 4.637 3.253 5.719a22.156 22.156 0 0 0-.955 1.914c-3.468 8.013-.662 14.854-.541 15.143l.232.552.549.24c.125.054 3.105 1.334 7.429 1.334a21.7 21.7 0 0 0 10.141-2.485c.018.036.03.075.049.111.741 1.441 2.356 3.214 5.839 3.468.315.022.62.034.915.034 3.056 0 5.408-1.235 6.802-3.571 2.321-3.891 1.617-10.292.183-15.879a63.703 63.703 0 0 0 2.042-4.782c1.226-3.22 1.295-5.65.826-7.472 2.312-1.245 5.109-.828 6.382.474.814.833.759 1.881-.166 3.112a1.502 1.502 0 0 0 1.199 2.401c.456 0 .906-.207 1.201-.6 2.164-2.888 1.373-5.515-.089-7.012zM79.354 58.833c-.953 1.599-2.525 2.259-4.922 2.082-2.271-.165-3.022-1.134-3.39-1.848-.051-.099-.079-.217-.123-.322-.395-.951-.502-2.151-.388-3.516.078-.943.25-1.954.51-3.018.417-1.703 1.037-3.518 1.752-5.319a69.63 69.63 0 0 1 1.715-3.941 86.18 86.18 0 0 1 2.386-4.686l.081.081c1.127 2.778 2.306 6.56 2.956 10.238.715 4.046.789 7.959-.577 10.249zM51.21 37.694c-.134-1.841.232-3.2 1.121-4.156 1.147-1.233 3.22-1.858 6.16-1.858 1.633 0 3.399.2 5.176.522 3.716.675 7.47 1.891 10.128 2.965l.056.056a89.51 89.51 0 0 1-4.683 2.389 67.483 67.483 0 0 1-3.938 1.719c-1.776.707-3.597 1.321-5.331 1.739-1.172.282-2.3.469-3.349.529-.237.014-.479.031-.707.031-1.146 0-2.056-.167-2.757-.521-1.163-.588-1.75-1.693-1.876-3.415zm20.211 2.17l.825.825a72.816 72.816 0 0 0-1.768 3.889l-2.947-2.947a76.192 76.192 0 0 0 3.89-1.767zm-9.08 3.647l6.267 6.268c-.467 1.592-.821 3.172-.989 4.667l-9.933-9.932c1.483-.172 3.059-.529 4.655-1.003zm-2.186 16.2l-8.198-8.198a17.81 17.81 0 0 1 1.19-4.467l11.587 11.587a18.496 18.496 0 0 1-4.579 1.078zm21.197-21.07c-.186.487-.374.961-.564 1.426-.787-2.304-1.593-4.218-2.178-5.388a1.501 1.501 0 0 0-.438-.727 1.492 1.492 0 0 0-.73-.437c-1.188-.601-2.924-1.333-4.974-2.049.068-.025.133-.053.201-.078l.31-.116c1.239-.465 3.312-1.242 5.169-1.242 1.228 0 2.156.331 2.838 1.013 1.565 1.566 1.689 4.122.366 7.598zM44.735 66.188a1.5 1.5 0 0 1-.608-2.872c1.37-.607 2.185-1.014 2.202-1.022a1.5 1.5 0 0 1 1.343 2.684s-.865.433-2.33 1.081a1.502 1.502 0 0 1-.607.129zM15.426 90.381a1.5 1.5 0 0 1-.476-2.922 34.087 34.087 0 0 0 4.474-1.841 1.5 1.5 0 0 1 1.348 2.68 37.14 37.14 0 0 1-4.87 2.007 1.552 1.552 0 0 1-.476.076zm8.918-4.649a1.5 1.5 0 0 1-.974-2.641c.206-.176.401-.353.585-.531a52.833 52.833 0 0 0 2.794-2.93 1.498 1.498 0 0 1 2.116-.136c.622.547.684 1.494.136 2.116a54.965 54.965 0 0 1-2.955 3.101c-.229.223-.474.444-.73.663-.283.24-.628.358-.972.358zm6.636-7.595a1.5 1.5 0 0 1-1.239-2.344c.953-1.402 1.744-2.803 2.35-4.163a1.497 1.497 0 0 1 1.979-.761 1.498 1.498 0 0 1 .761 1.979c-.678 1.523-1.556 3.082-2.609 4.632-.29.427-.762.657-1.242.657zm-5.601-6.365a1.5 1.5 0 0 1-.124-2.995 38.79 38.79 0 0 0 4.808-.737 1.5 1.5 0 1 1 .627 2.933 41.9 41.9 0 0 1-5.183.794 1.37 1.37 0 0 1-.128.005zm-5.043-.065c-.065 0-.132-.004-.198-.013-2.06-.272-3.858-.86-5.347-1.749a1.5 1.5 0 0 1 1.537-2.577c1.136.678 2.55 1.133 4.202 1.351a1.5 1.5 0 0 1-.194 2.988zm14.931-1.977a1.503 1.503 0 0 1-1.494-1.363 1.49 1.49 0 0 1-.315-1.185c.12-.744.181-1.484.181-2.2 0-.782-.073-1.558-.217-2.304a1.5 1.5 0 1 1 2.945-.569c.181.934.271 1.899.271 2.872 0 .413-.017.832-.049 1.253a78.95 78.95 0 0 0 2.938-1.04 1.501 1.501 0 0 1 1.055 2.809 80.545 80.545 0 0 1-4.878 1.662 1.475 1.475 0 0 1-.437.065zM12.181 66.5a1.502 1.502 0 0 1-1.344-.831c-.697-1.4-1.146-3.044-1.329-4.884-.02-.186-.035-.373-.047-.558a1.5 1.5 0 0 1 1.4-1.594 1.49 1.49 0 0 1 1.594 1.4c.01.147.021.296.037.448.148 1.48.495 2.774 1.03 3.849a1.502 1.502 0 0 1-1.341 2.17zm20.828-7.26c-.489 0-.97-.239-1.258-.681a13.195 13.195 0 0 0-3.093-3.289 1.5 1.5 0 1 1 1.815-2.389 16.181 16.181 0 0 1 3.792 4.039 1.5 1.5 0 0 1-1.256 2.32zm-21.246-2.542a1.5 1.5 0 0 1-1.355-2.142c.869-1.837 2.327-3.289 4.217-4.2a1.5 1.5 0 0 1 1.303 2.702c-1.282.618-2.228 1.554-2.809 2.781a1.497 1.497 0 0 1-1.356.859zm13.373-3.519c-.169 0-.341-.028-.509-.089-1.474-.531-3.018-.827-4.467-.855a1.5 1.5 0 0 1-1.47-1.53c.017-.828.696-1.437 1.53-1.47 1.771.035 3.646.393 5.424 1.033a1.5 1.5 0 0 1-.508 2.911zM7.998 92.136a1.5 1.5 0 0 1-.21-2.985c.783-.111 1.583-.25 2.377-.412a1.5 1.5 0 0 1 .6 2.94c-.852.173-1.711.321-2.553.442a1.55 1.55 0 0 1-.214.015z"></path></g><!----></svg>